<?xml version="1.0" encoding="utf-8"?>
<!-- Generator: Adobe Illustrator 16.0.0, SVG Export Plug-In . SVG Version: 6.00 Build 0)  -->
<!DOCTYPE svg PUBLIC "-//W3C//DTD SVG 1.1//EN" "http://www.w3.org/Graphics/SVG/1.1/DTD/svg11.dtd">
<svg version="1.1" id="Layer_1" xmlns="http://www.w3.org/2000/svg" xmlns:xlink="http://www.w3.org/1999/xlink" x="0px" y="0px"
	 width="248.469px" height="63.528px" viewBox="0 0 248.469 63.528" enable-background="new 0 0 248.469 63.528"
	 xml:space="preserve">
<g>
	<g>
		<path fill="#1F2C3E" stroke="#1F2C3E" stroke-miterlimit="10" d="M0.5,18.801h4.956v4.322h0.13
			c1.354-1.611,2.931-2.861,4.731-3.751c1.802-0.889,3.782-1.333,5.943-1.333c2.33,0,4.458,0.392,6.386,1.174
			c1.927,0.785,3.569,1.876,4.927,3.272c1.354,1.399,2.413,3.051,3.177,4.96c0.764,1.907,1.143,3.981,1.143,6.223
			c0,2.248-0.379,4.32-1.143,6.23c-0.764,1.906-1.812,3.557-3.147,4.955c-1.334,1.4-2.913,2.49-4.731,3.273
			c-1.823,0.785-3.774,1.172-5.849,1.172c-2.668,0-5.009-0.582-7.022-1.744c-2.012-1.164-3.482-2.594-4.414-4.289h-0.13v19.762H0.5
			V18.801z M5.456,33.668c0,1.57,0.246,3.023,0.731,4.355c0.488,1.334,1.198,2.5,2.129,3.494c0.932,0.994,2.046,1.781,3.337,2.352
			c1.289,0.57,2.743,0.857,4.352,0.857c1.61,0,3.062-0.287,4.353-0.857c1.295-0.57,2.405-1.357,3.339-2.352
			c0.932-0.994,1.641-2.16,2.128-3.494c0.487-1.332,0.729-2.785,0.729-4.355c0-1.564-0.242-3.017-0.729-4.35
			c-0.487-1.334-1.196-2.501-2.128-3.498c-0.934-0.99-2.044-1.778-3.339-2.347c-1.29-0.575-2.742-0.859-4.353-0.859
			c-1.608,0-3.062,0.284-4.352,0.859c-1.291,0.568-2.405,1.356-3.337,2.347c-0.931,0.997-1.641,2.164-2.129,3.498
			C5.702,30.651,5.456,32.104,5.456,33.668z"/>
		<path fill="#1F2C3E" stroke="#1F2C3E" stroke-miterlimit="10" d="M36.623,7.173c0-0.975,0.35-1.823,1.05-2.541
			c0.698-0.724,1.557-1.084,2.572-1.084c1.018,0,1.876,0.36,2.573,1.084c0.701,0.718,1.05,1.566,1.05,2.541
			c0,1.06-0.338,1.928-1.018,2.604c-0.678,0.681-1.546,1.017-2.605,1.017c-1.059,0-1.928-0.336-2.603-1.017
			C36.962,9.101,36.623,8.232,36.623,7.173z M37.768,18.801h4.956V48.54h-4.956V18.801z"/>
		<path fill="#1F2C3E" stroke="#1F2C3E" stroke-miterlimit="10" d="M72.604,26.237c-1.06-1.275-2.203-2.195-3.431-2.764
			c-1.23-0.575-2.587-0.859-4.066-0.859c-1.654,0-3.115,0.284-4.385,0.859c-1.271,0.568-2.32,1.361-3.145,2.379
			c-0.827,1.017-1.453,2.195-1.876,3.526c-0.423,1.339-0.635,2.767-0.635,4.29c0,1.529,0.241,2.953,0.729,4.293
			c0.487,1.332,1.165,2.508,2.034,3.525c0.869,1.021,1.916,1.812,3.147,2.383c1.227,0.57,2.603,0.857,4.13,0.857
			c3.262,0,5.78-1.225,7.562-3.686l3.684,3.494c-1.439,1.654-3.135,2.863-5.083,3.623c-1.949,0.764-4.005,1.141-6.163,1.141
			c-2.288,0-4.385-0.377-6.291-1.141c-1.906-0.76-3.528-1.844-4.861-3.238c-1.337-1.404-2.376-3.053-3.114-4.961
			c-0.743-1.904-1.113-4.004-1.113-6.291c0-2.242,0.37-4.316,1.113-6.223c0.738-1.909,1.789-3.561,3.145-4.96
			c1.355-1.396,2.976-2.487,4.862-3.272c1.884-0.782,3.972-1.174,6.26-1.174c2.2,0,4.286,0.38,6.258,1.144
			c1.971,0.763,3.695,1.947,5.178,3.558L72.604,26.237z"/>
		<path fill="#1F2C3E" stroke="#1F2C3E" stroke-miterlimit="10" d="M79.228,33.668c0-2.328,0.402-4.449,1.208-6.35
			c0.804-1.909,1.906-3.552,3.303-4.925c1.399-1.379,3.071-2.448,5.021-3.211c1.948-0.764,4.067-1.144,6.354-1.144
			c2.288,0,4.406,0.38,6.355,1.144c1.946,0.763,3.622,1.832,5.021,3.211c1.396,1.373,2.499,3.016,3.304,4.925
			c0.802,1.901,1.206,4.022,1.206,6.35c0,2.334-0.404,4.447-1.206,6.355c-0.805,1.908-1.907,3.549-3.304,4.926
			c-1.399,1.375-3.075,2.449-5.021,3.209c-1.949,0.764-4.067,1.141-6.355,1.141c-2.287,0-4.406-0.377-6.354-1.141
			c-1.949-0.76-3.621-1.834-5.021-3.209c-1.396-1.377-2.499-3.018-3.303-4.926C79.63,38.116,79.228,36.002,79.228,33.668z
			 M84.564,33.668c0,1.57,0.245,3.023,0.729,4.355c0.487,1.334,1.199,2.5,2.131,3.494s2.045,1.781,3.336,2.352
			c1.29,0.57,2.743,0.857,4.353,0.857c1.61,0,3.061-0.287,4.353-0.857s2.403-1.357,3.336-2.352c0.931-0.994,1.643-2.16,2.13-3.494
			c0.485-1.332,0.729-2.785,0.729-4.355c0-1.564-0.244-3.017-0.729-4.35c-0.487-1.334-1.199-2.501-2.13-3.498
			c-0.933-0.99-2.044-1.778-3.336-2.347c-1.292-0.575-2.742-0.859-4.353-0.859c-1.609,0-3.062,0.284-4.353,0.859
			c-1.291,0.568-2.404,1.356-3.336,2.347c-0.932,0.997-1.644,2.164-2.131,3.498C84.81,30.651,84.564,32.104,84.564,33.668z"/>
		<path fill="#1F2C3E" stroke="#1F2C3E" stroke-miterlimit="10" d="M115.302,25.853c0-1.356-0.044-2.624-0.129-3.812
			c-0.085-1.185-0.126-2.265-0.126-3.24h4.703c0,0.804,0.021,1.609,0.063,2.414c0.043,0.807,0.062,1.633,0.062,2.477h0.127
			c0.34-0.718,0.816-1.418,1.432-2.096c0.615-0.676,1.344-1.28,2.189-1.812c0.85-0.528,1.801-0.951,2.861-1.268
			c1.057-0.32,2.201-0.478,3.431-0.478c1.608,0,2.956,0.2,4.034,0.603c1.081,0.405,1.982,0.892,2.701,1.46
			c0.718,0.575,1.281,1.19,1.684,1.844c0.402,0.657,0.732,1.24,0.988,1.746c1.098-1.777,2.37-3.164,3.811-4.158
			c1.439-0.996,3.305-1.494,5.591-1.494c2.122,0,3.9,0.287,5.339,0.856c1.439,0.572,2.606,1.396,3.495,2.478
			c0.89,1.08,1.528,2.394,1.907,3.939c0.379,1.552,0.571,3.275,0.571,5.184V48.54h-4.956V30.748c0-1.017-0.109-2.014-0.318-2.988
			c-0.211-0.973-0.592-1.841-1.142-2.603c-0.551-0.765-1.293-1.38-2.226-1.845c-0.932-0.465-2.118-0.698-3.561-0.698
			c-1.059,0-2.056,0.21-2.983,0.636c-0.937,0.422-1.746,1.017-2.447,1.778c-0.695,0.762-1.253,1.684-1.653,2.767
			c-0.404,1.078-0.603,2.275-0.603,3.586V48.54h-4.956v-16.84c0-3.301-0.446-5.646-1.334-7.021c-0.891-1.376-2.35-2.063-4.384-2.063
			c-1.616,0-3.001,0.276-4.167,0.825c-1.165,0.551-2.115,1.335-2.859,2.351c-0.738,1.017-1.29,2.224-1.651,3.623
			c-0.357,1.399-0.542,2.945-0.542,4.64V48.54h-4.953V25.853z"/>
		<path fill="#1F2C3E" stroke="#1F2C3E" stroke-miterlimit="10" d="M166.805,22.614c1.522-1.567,3.332-2.721,5.431-3.464
			c2.098-0.741,4.227-1.111,6.384-1.111c4.408,0,7.586,1.036,9.534,3.113c1.948,2.076,2.925,5.231,2.925,9.467v12.774
			c0,0.85,0.041,1.727,0.127,2.637c0.086,0.914,0.189,1.75,0.316,2.51h-4.768c-0.17-0.676-0.261-1.43-0.284-2.256
			c-0.023-0.824-0.032-1.557-0.032-2.191h-0.129c-0.972,1.527-2.275,2.777-3.907,3.746c-1.626,0.979-3.589,1.461-5.877,1.461
			c-1.525,0-2.956-0.189-4.289-0.568c-1.334-0.381-2.501-0.943-3.495-1.684c-0.993-0.742-1.792-1.662-2.384-2.766
			c-0.592-1.102-0.892-2.373-0.892-3.812c0-2.453,0.638-4.383,1.908-5.783c1.272-1.398,2.851-2.431,4.735-3.112
			c1.885-0.676,3.919-1.102,6.101-1.273c2.181-0.167,4.181-0.253,6.005-0.253h1.905v-0.891c0-2.161-0.644-3.791-1.937-4.891
			c-1.293-1.104-3.104-1.652-5.431-1.652c-1.615,0-3.189,0.264-4.738,0.79c-1.543,0.532-2.911,1.351-4.098,2.448L166.805,22.614z
			 M181.163,34.243c-3.176,0-5.698,0.443-7.564,1.334c-1.86,0.891-2.792,2.354-2.792,4.383c0,1.867,0.624,3.191,1.871,3.977
			c1.252,0.781,2.811,1.174,4.671,1.174c1.44,0,2.701-0.244,3.782-0.729c1.08-0.49,1.982-1.135,2.701-1.939
			c0.722-0.807,1.271-1.75,1.655-2.828c0.379-1.084,0.589-2.232,0.632-3.463v-1.908H181.163z"/>
		<path fill="#1F2C3E" stroke="#1F2C3E" stroke-miterlimit="10" d="M197.905,25.853c0-1.356-0.044-2.624-0.126-3.812
			c-0.086-1.185-0.129-2.265-0.129-3.24h4.703c0,0.804,0.022,1.611,0.062,2.414c0.041,0.807,0.063,1.633,0.063,2.477h0.127
			c0.339-0.718,0.815-1.418,1.431-2.096c0.614-0.676,1.344-1.28,2.194-1.812c0.843-0.528,1.797-0.951,2.856-1.268
			c1.061-0.32,2.202-0.478,3.432-0.478c0.339,0,0.678,0.021,1.018,0.062c0.338,0.044,0.678,0.128,1.017,0.256l-0.319,5.019
			c-0.848-0.252-1.738-0.381-2.669-0.381c-3.052,0-5.264,0.985-6.639,2.956c-1.378,1.972-2.064,4.669-2.064,8.103V48.54h-4.957
			V25.853z"/>
		<path fill="#1F2C3E" stroke="#1F2C3E" stroke-miterlimit="10" d="M220.271,0.5h4.957v31.393l13.537-13.092h7.055l-14.365,13.534
			l15.826,16.205h-7.311l-14.742-15.631V48.54h-4.957V0.5z"/>
	</g>
</g>
</svg>
