<?xml version="1.0" encoding="utf-8"?>
<!-- Generator: Adobe Illustrator 16.0.0, SVG Export Plug-In . SVG Version: 6.00 Build 0)  -->
<!DOCTYPE svg PUBLIC "-//W3C//DTD SVG 1.1//EN" "http://www.w3.org/Graphics/SVG/1.1/DTD/svg11.dtd">
<svg version="1.1" id="Layer_1" xmlns="http://www.w3.org/2000/svg" xmlns:xlink="http://www.w3.org/1999/xlink" x="0px" y="0px"
	 width="372.029px" height="153.533px" viewBox="0 0 372.029 153.533" enable-background="new 0 0 372.029 153.533"
	 xml:space="preserve">
<g id="Layer_1_1_">
</g>
<g id="Receipts">
	
		<image overflow="visible" opacity="0.37" width="384" height="153" xlink:href="600524A71A07785A.png"  transform="matrix(1 0 0 1 0.5144 -0.7334)">
	</image>
	<g>
		<g>
			<g enable-background="new    ">
				<path fill="#05A1FF" d="M27.587,42.717c-1.768,0-4.031-0.425-4.455-0.566l17.96,18.031l-2.687,2.687L15.071,39.534h10.323
					c6.01,0,12.445-4.737,12.445-13.011c0-5.939-4.525-12.586-12.586-12.586h-11.95v47.658H9.485V10.119h15.768
					c10.394,0,16.404,8.415,16.404,16.404C41.657,35.434,35.152,42.717,27.587,42.717z"/>
				<path fill="#05A1FF" d="M75.529,36.282H59.972v21.495h22.203v3.818H56.154V10.119h23.334v3.818H59.972v18.526h15.556V36.282z"/>
				<path fill="#05A1FF" d="M120.36,59.05c6.011,0,11.879-2.403,16.263-6.646l2.687,2.688c-5.02,4.949-11.808,7.777-18.879,7.777
					c-16.122,0-27.293-12.798-27.293-26.869c0-16.122,12.798-27.294,26.869-27.294c7.919,0,14.708,3.111,19.516,7.99l-2.687,2.687
					c-4.101-4.171-9.899-6.858-16.829-6.858c-12.303,0-23.051,9.899-23.051,23.405C96.956,48.303,106.855,59.05,120.36,59.05z"/>
				<path fill="#05A1FF" d="M174.102,36.282h-15.556v21.495h22.203v3.818h-26.021V10.119h23.334v3.818h-19.516v18.526h15.556V36.282
					z"/>
				<path fill="#05A1FF" d="M196.306,61.596V10.119h3.817v51.477H196.306z"/>
				<path fill="#05A1FF" d="M217.095,61.596V10.119h15.769c10.394,0,16.404,8.415,16.404,16.404c0,10.183-7.85,16.829-16.193,16.829
					h-12.162v18.243H217.095z M233.005,39.534c6.01,0,12.445-4.737,12.445-13.011c0-5.939-4.525-12.586-12.586-12.586h-11.951
					v25.597H233.005z"/>
				<path fill="#05A1FF" d="M272.604,61.596V13.938h-17.678v-3.818h38.891v3.818h-17.395v47.658H272.604z"/>
			</g>
			<g enable-background="new    ">
				<path fill="none" stroke="#05A1FF" stroke-miterlimit="10" d="M27.587,42.717c-1.768,0-4.031-0.425-4.455-0.566l17.96,18.031
					l-2.687,2.687L15.071,39.534h10.323c6.01,0,12.445-4.737,12.445-13.011c0-5.939-4.525-12.586-12.586-12.586h-11.95v47.658H9.485
					V10.119h15.768c10.394,0,16.404,8.415,16.404,16.404C41.657,35.434,35.152,42.717,27.587,42.717z"/>
				<path fill="none" stroke="#05A1FF" stroke-miterlimit="10" d="M75.529,36.282H59.972v21.495h22.203v3.818H56.154V10.119h23.334
					v3.818H59.972v18.526h15.556V36.282z"/>
				<path fill="none" stroke="#05A1FF" stroke-miterlimit="10" d="M120.36,59.05c6.011,0,11.879-2.403,16.263-6.646l2.687,2.688
					c-5.02,4.949-11.808,7.777-18.879,7.777c-16.122,0-27.293-12.798-27.293-26.869c0-16.122,12.798-27.294,26.869-27.294
					c7.919,0,14.708,3.111,19.516,7.99l-2.687,2.687c-4.101-4.171-9.899-6.858-16.829-6.858c-12.303,0-23.051,9.899-23.051,23.405
					C96.956,48.303,106.855,59.05,120.36,59.05z"/>
				<path fill="none" stroke="#05A1FF" stroke-miterlimit="10" d="M174.102,36.282h-15.556v21.495h22.203v3.818h-26.021V10.119
					h23.334v3.818h-19.516v18.526h15.556V36.282z"/>
				<path fill="none" stroke="#05A1FF" stroke-miterlimit="10" d="M196.306,61.596V10.119h3.817v51.477H196.306z"/>
				<path fill="none" stroke="#05A1FF" stroke-miterlimit="10" d="M217.095,61.596V10.119h15.769
					c10.394,0,16.404,8.415,16.404,16.404c0,10.183-7.85,16.829-16.193,16.829h-12.162v18.243H217.095z M233.005,39.534
					c6.01,0,12.445-4.737,12.445-13.011c0-5.939-4.525-12.586-12.586-12.586h-11.951v25.597H233.005z"/>
				<path fill="none" stroke="#05A1FF" stroke-miterlimit="10" d="M272.604,61.596V13.938h-17.678v-3.818h38.891v3.818h-17.395
					v47.658H272.604z"/>
			</g>
			<g enable-background="new    ">
				<path fill="#05A1FF" d="M190.577,134.151c-5.374,0-14.92-2.616-15.98-16.263l3.818-0.213
					c0.848,10.606,7.707,12.657,12.232,12.657c8.132,0,12.869-6.576,12.869-12.232c0-4.597-2.121-7.566-13.859-10.606
					c-6.576-1.768-12.798-5.374-12.798-13.223c0-10.183,8.202-14.071,13.93-14.071c8.697,0,14.142,6.364,14.495,14.071l-3.818,0.212
					c-0.283-5.798-4.242-10.465-10.605-10.465c-4.597,0-10.183,3.04-10.183,10.111c0,5.798,4.596,8.273,9.97,9.616
					c13.718,3.606,16.688,8.132,16.688,14.354C207.335,125.596,201.254,134.151,190.577,134.151z"/>
				<path fill="#05A1FF" d="M258.387,123.828V81.119h3.818v53.174l-37.264-44.405v42.708h-3.818V79.422L258.387,123.828z"/>
				<path fill="#05A1FF" d="M298.695,79.493l24.395,52.325l-3.465,1.626l-8.909-19.092h-24.111l-8.91,19.092l-3.465-1.626
					L298.695,79.493z M298.624,88.473l-10.252,22.062h20.576L298.624,88.473z"/>
				<path fill="#05A1FF" d="M335.112,132.596V81.119h15.768c10.395,0,16.404,8.415,16.404,16.404
					c0,10.183-7.848,16.829-16.191,16.829H338.93v18.243H335.112z M351.021,110.534c6.011,0,12.444-4.737,12.444-13.011
					c0-5.939-4.525-12.586-12.586-12.586H338.93v25.597H351.021z"/>
			</g>
			<g enable-background="new    ">
				<path fill="none" stroke="#05A1FF" stroke-miterlimit="10" d="M190.577,134.151c-5.374,0-14.92-2.616-15.98-16.263l3.818-0.213
					c0.848,10.606,7.707,12.657,12.232,12.657c8.132,0,12.869-6.576,12.869-12.232c0-4.597-2.121-7.566-13.859-10.606
					c-6.576-1.768-12.798-5.374-12.798-13.223c0-10.183,8.202-14.071,13.93-14.071c8.697,0,14.142,6.364,14.495,14.071l-3.818,0.212
					c-0.283-5.798-4.242-10.465-10.605-10.465c-4.597,0-10.183,3.04-10.183,10.111c0,5.798,4.596,8.273,9.97,9.616
					c13.718,3.606,16.688,8.132,16.688,14.354C207.335,125.596,201.254,134.151,190.577,134.151z"/>
				<path fill="none" stroke="#05A1FF" stroke-miterlimit="10" d="M258.387,123.828V81.119h3.818v53.174l-37.264-44.405v42.708
					h-3.818V79.422L258.387,123.828z"/>
				<path fill="none" stroke="#05A1FF" stroke-miterlimit="10" d="M298.695,79.493l24.395,52.325l-3.465,1.626l-8.909-19.092
					h-24.111l-8.91,19.092l-3.465-1.626L298.695,79.493z M298.624,88.473l-10.252,22.062h20.576L298.624,88.473z"/>
				<path fill="none" stroke="#05A1FF" stroke-miterlimit="10" d="M335.112,132.596V81.119h15.768
					c10.395,0,16.404,8.415,16.404,16.404c0,10.183-7.848,16.829-16.191,16.829H338.93v18.243H335.112z M351.021,110.534
					c6.011,0,12.444-4.737,12.444-13.011c0-5.939-4.525-12.586-12.586-12.586H338.93v25.597H351.021z"/>
			</g>
		</g>
	</g>
</g>
</svg>
