<?xml version="1.0" encoding="utf-8"?>
<!-- Generator: Adobe Illustrator 16.0.0, SVG Export Plug-In . SVG Version: 6.00 Build 0)  -->
<!DOCTYPE svg PUBLIC "-//W3C//DTD SVG 1.1//EN" "http://www.w3.org/Graphics/SVG/1.1/DTD/svg11.dtd">
<svg version="1.1" id="Layer_1" xmlns="http://www.w3.org/2000/svg" xmlns:xlink="http://www.w3.org/1999/xlink" x="0px" y="0px"
	 width="476px" height="481px" viewBox="0 0 476 481" enable-background="new 0 0 476 481" xml:space="preserve">
<g id="structure_1_">
	<path fill="#FFFFFF" d="M238.106,9.011c-128.12,0-231.982,103.861-231.982,231.98c0,128.121,103.862,231.982,231.982,231.982
		c128.119,0,231.98-103.861,231.98-231.98C470.089,112.872,366.226,9.011,238.106,9.011L238.106,9.011z"/>
</g>
<g id="Layer_1_1_">
	<path fill="#DC3D5F" d="M238,533.172"/>
	<path fill="#DC3D5F" stroke="#FFFFFF" stroke-miterlimit="10" d="M238,538.172"/>
</g>
<g id="Layer_9">
	<path fill="#DC3D5F" stroke="#DD0031" stroke-width="5.1119" stroke-miterlimit="10" d="M45.896,240.492"/>
	<path fill="#DC3D5F" stroke="#DD0031" stroke-width="5.1119" stroke-linecap="round" stroke-miterlimit="10" d="M47.286,263.746"/>
	<path fill="#DC3D5F" stroke="#DD0031" stroke-width="5.1119" stroke-linecap="round" stroke-miterlimit="10" d="M115.152,388.348"
		/>
	<path fill="#DC3D5F" stroke="#DD0031" stroke-width="5.1119" stroke-miterlimit="10" d="M238.337,432.934"/>
	<path fill="#DC3D5F" stroke="#DD0031" stroke-width="5.1119" stroke-linecap="round" stroke-miterlimit="10" d="M361.529,388.342"
		/>
	<path fill="#DC3D5F" stroke="#DD0031" stroke-width="5.1119" stroke-linecap="round" stroke-miterlimit="10" d="M429.539,262.456"
		/>
	<path fill="#DC3D5F" stroke="#DD0031" stroke-width="5.1119" stroke-miterlimit="10" d="M430.78,240.492"/>
	<path fill="#DC3D5F" stroke="#DD0031" stroke-width="5.1119" stroke-linecap="round" stroke-miterlimit="10" d="M429.475,217.96"/>
	<path fill="#DC3D5F" stroke="#DD0031" stroke-width="5.1119" stroke-linecap="round" stroke-miterlimit="10" d="M415.349,164.86"/>
	<g>
		<path fill="#DC3D5F" stroke="#FFFFFF" stroke-width="3.4361" stroke-miterlimit="10" d="M148.045,377.23"/>
	</g>
</g>
<g id="structure">
	<path fill="#DC3D5F" d="M238.404,14.054c30.636,0,60.353,5.999,88.325,17.831c27.021,11.429,51.289,27.791,72.13,48.632
		c20.842,20.842,37.204,45.11,48.633,72.13c11.831,27.972,17.83,57.689,17.83,88.325c0,30.635-5.999,60.352-17.83,88.325
		c-11.429,27.021-27.791,51.289-48.633,72.131c-20.841,20.84-45.109,37.203-72.13,48.631c-27.973,11.832-57.688,17.83-88.325,17.83
		c-30.636,0-60.354-5.998-88.325-17.83c-27.021-11.428-51.289-27.791-72.13-48.631c-20.841-20.842-37.204-45.108-48.632-72.131
		c-11.832-27.973-17.831-57.689-17.831-88.326s5.999-60.353,17.831-88.325c11.429-27.021,27.791-51.289,48.632-72.13
		c20.841-20.841,45.109-37.204,72.13-48.632C178.051,20.053,207.769,14.054,238.404,14.054 M238.404,8.99
		C110.284,8.99,6.422,112.852,6.422,240.971c0,128.121,103.862,231.982,231.982,231.982s231.981-103.861,231.981-231.981
		C470.386,112.852,366.523,8.99,238.404,8.99L238.404,8.99z"/>
</g>
<g id="Layer_5">
</g>
<g id="Layer_6">
	<g>
		<path fill="#DC3D5F" d="M219.534,422.516l-6.51-0.721l-1.082,9.766l7.325,0.812c3.159,0.352,5.716-1.305,6.045-4.273
			C225.695,424.652,223.412,422.945,219.534,422.516z"/>
		<path fill="#DC3D5F" d="M303.741,48.262l-7.729-2.555l-2.934,8.872l7.5,2.48c2.836,0.938,5.913,1.144,7.138-2.561
			C308.881,50.976,307.034,49.351,303.741,48.262z"/>
		<path fill="#DC3D5F" d="M238.51,23.152c-120.162,0-217.567,97.406-217.567,217.567c0,75.859,38.829,142.639,97.687,181.578
			l28.023-42.934C101.84,349.611,72.27,298.723,72.21,240.9c-0.103-91.848,74.28-166.387,166.129-166.481
			c91.849-0.103,166.386,74.28,166.488,166.128c0.06,57.498-29.07,108.21-73.399,138.125l28.022,42.93
			c58.27-39.036,96.636-105.477,96.636-180.882C456.086,120.558,358.671,23.152,238.51,23.152z M429.771,220.499
			c-0.102,0.012-0.2,0.018-0.3,0.018c-1.278,0-2.384-0.958-2.536-2.26c-2.106-18.073-6.797-35.7-13.937-52.391
			c-0.556-1.298,0.047-2.8,1.345-3.355c1.292-0.555,2.799,0.046,3.354,1.345c7.334,17.144,12.148,35.248,14.314,53.81
			C432.177,219.066,431.173,220.335,429.771,220.499z M44.662,217.665c2.165-18.564,6.981-36.668,14.315-53.812
			c0.556-1.297,2.058-1.898,3.355-1.345c1.298,0.556,1.9,2.058,1.345,3.355c-7.141,16.69-11.831,34.318-13.938,52.393
			c-0.151,1.302-1.256,2.26-2.535,2.26c-0.099,0-0.199-0.006-0.299-0.018C45.502,220.336,44.499,219.067,44.662,217.665z
			 M27.119,236.044l13.153-1.911l5.882-11.919l5.883,11.919l13.153,1.911l-9.518,9.278l2.247,13.1l-11.765-6.186l-11.765,6.186
			l2.247-13.1L27.119,236.044z M116.79,386.385c1.084,0.904,1.23,2.517,0.326,3.601c-0.505,0.605-1.232,0.919-1.964,0.919
			c-0.577,0-1.158-0.194-1.636-0.594c-38.396-32.022-62.817-76.862-68.767-126.258c-0.169-1.402,0.831-2.675,2.232-2.844
			c1.406-0.171,2.675,0.83,2.843,2.232C55.617,311.537,79.399,355.199,116.79,386.385z M96.723,138.605
			c-2.299,3.675-6.03,1.738-7.214,0.998c-5.145-3.218-7.815-3.582-10.114,0.093l-4.138,6.615l8.616,5.389
			c2,1.252,2.531,3.401,1.253,5.443c-1.277,2.042-3.442,2.505-5.442,1.254L57.021,144.22c-2.981-1.864-2.949-4.003-1.468-6.372
			l6.973-11.147c4.981-7.962,10.678-7.353,14.476-4.977c3.185,1.992,5.154,5.837,3.897,9.482l0.082,0.051
			c2.636-3.124,5.509-2.178,8.49-0.313c3.389,2.12,5.217,2.014,6.605,2.882C97.628,134.797,97.693,137.054,96.723,138.605z
			 M122.461,109.396l-13.391,13.378c-1.977,1.975-4.054,2.485-6.539-0.003l-17.975-17.99c-2.485-2.487-1.973-4.564,0.003-6.539
			l13.118-13.106c1.635-1.634,3.305-2.348,5.075-0.577c1.77,1.772,1.054,3.44-0.581,5.074L91.37,100.424l5.311,5.315l9.472-9.464
			c1.465-1.464,3.032-2.212,4.769-0.475c1.736,1.738,0.986,3.304-0.479,4.768l-9.472,9.464l5.923,5.928l11.074-11.063
			c1.635-1.634,3.305-2.349,5.075-0.577C124.812,106.093,124.096,107.762,122.461,109.396z M145.244,93.743
			c-8.458,5.367-14.924,3.537-16.937,0.365c-1.032-1.626-0.575-3.513,1.051-4.545c3.619-2.296,6.038,3.583,12.789-0.7
			c3.457-2.193,4.155-5.317,2.917-7.269c-0.749-1.179-2.144-2.119-4.782-1.244l-8.736,2.862c-7.04,2.299-10.253-0.339-12.24-3.47
			c-4.128-6.506,0.342-12.765,5.994-16.352c5.205-3.303,13.203-4.271,15.68-0.367c1.058,1.667,0.254,3.546-1.373,4.578
			c-3.091,1.961-5.282-2.751-11.504,1.196c-3.09,1.961-3.896,4.468-2.605,6.501c1.29,2.033,4.143,1.136,6.567,0.282l6.371-2.274
			c6.977-2.488,10.818,0.15,12.986,3.566C154.777,82.161,153.296,88.634,145.244,93.743z M180.017,46.141l-7.022,2.535l8.392,23.241
			c0.801,2.22-0.108,4.238-2.374,5.056c-2.265,0.818-4.255-0.154-5.056-2.374l-8.392-23.241l-7.022,2.536
			c-2.129,0.769-4.243,0.303-4.979-1.736c-0.735-2.039,0.594-3.748,2.723-4.516l21.474-7.753c2.129-0.769,4.243-0.303,4.979,1.735
			C183.475,43.663,182.146,45.372,180.017,46.141z M224.676,66.775c-1.716,0.25-3.045-0.19-3.839-1.632l-2.833-5.429l-12.585,1.829
			l-1.219,6.018c-0.303,1.602-1.309,2.381-3.168,2.651c-2.145,0.312-3.816-0.808-4.121-2.906c-0.125-0.858,0.15-2.31,0.326-3.114
			l6.22-28.21c0.41-1.861,1.56-2.661,3.467-2.938l1.859-0.27c1.764-0.256,3.398-0.056,4.61,2.25l13.255,24.894
			c0.397,0.721,1.074,2.034,1.199,2.893C228.125,64.717,226.678,66.484,224.676,66.775z M268.127,54.82
			c-0.752,9.508-6.947,13.318-16.12,12.592c-9.172-0.726-14.692-5.463-13.939-14.971l1.448-18.295
			c0.186-2.353,1.848-3.816,4.248-3.626c2.401,0.19,3.812,1.896,3.627,4.25l-1.498,18.919c-0.371,4.706,2.103,7.028,6.615,7.385
			c4.514,0.357,7.322-1.546,7.694-6.252l1.497-18.919c0.188-2.353,1.849-3.816,4.249-3.626c2.401,0.19,3.812,1.896,3.626,4.25
			L268.127,54.82z M315.564,55.925c-1.181,3.567-4.447,6.393-8.287,6.037l-0.03,0.091c3.66,1.819,3.424,4.835,2.319,8.174
			c-1.254,3.795-0.717,5.546-1.231,7.101c-0.573,1.738-2.751,2.337-4.487,1.762c-4.117-1.361-3.121-5.445-2.684-6.771
			c1.904-5.762,1.625-8.442-2.49-9.803l-7.408-2.45l-3.19,9.649c-0.741,2.241-2.703,3.266-4.989,2.51
			c-2.287-0.756-3.251-2.749-2.511-4.99l8.393-25.38c1.104-3.338,3.189-3.815,5.843-2.938l12.483,4.128
			C316.211,45.993,316.971,51.672,315.564,55.925z M350.018,66.386l-5.631,27.627c-0.154,0.809-0.469,2.252-0.919,2.993
			c-1,1.646-3.239,2.088-4.969,1.038c-1.481-0.9-2.228-2.085-1.92-3.703l1.272-5.989l-10.865-6.603l-4.771,3.863
			c-1.253,1.042-2.524,1.001-4.13,0.026c-1.852-1.125-2.428-3.053-1.327-4.864c0.45-0.741,1.587-1.684,2.234-2.192l22.755-17.785
			c1.501-1.173,2.896-1.058,4.542-0.057l1.604,0.976C349.419,62.642,350.552,63.837,350.018,66.386z M367.381,123.741
			c-1.789-1.753-2.004-2.704-1.613-4.547l5.361-25.09l-0.068-0.067l-13.988,14.279c-1.786,1.824-3.695,1.707-5.381,0.056
			c-1.688-1.652-1.842-3.558-0.057-5.381l19.247-19.647c2.292-2.34,4.371-2.191,6.779,0.168c1.17,1.146,1.764,2.604,1.372,4.244
			l-5.73,25.605l0.068,0.067l14.393-14.692c1.787-1.824,3.695-1.708,5.383-0.056c1.686,1.652,1.842,3.558,0.055,5.381L374.156,123.5
			C371.966,125.737,369.755,126.066,367.381,123.741z M390.471,148.632c-1.992,1.267-4.16,0.819-5.453-1.213
			c-1.293-2.033-0.777-4.187,1.213-5.453l20.854-13.26l-4.007-6.3c-1.215-1.911-1.222-4.076,0.606-5.239
			c1.83-1.164,3.787-0.239,5.003,1.671l12.253,19.268c1.215,1.911,1.222,4.076-0.608,5.239c-1.829,1.163-3.787,0.239-5.002-1.672
			l-4.006-6.301L390.471,148.632z M432.079,262.744c-5.673,49.922-30.146,95.224-68.912,127.561
			c-0.479,0.398-1.06,0.594-1.638,0.594c-0.73,0-1.457-0.312-1.963-0.918c-0.904-1.085-0.76-2.696,0.324-3.602
			c37.752-31.49,61.585-75.603,67.107-124.212c0.16-1.403,1.432-2.415,2.828-2.251C431.23,260.075,432.238,261.341,432.079,262.744z
			 M430.223,251.672l-11.101,5.836l2.12-12.359l-8.98-8.755l12.411-1.803l5.55-11.246l5.551,11.246l12.411,1.803l-8.979,8.755
			l2.12,12.359L430.223,251.672z"/>
		<path fill="#DC3D5F" d="M73.752,129.008c-3.144-1.967-5.161-0.559-7,2.381l-4.317,6.9l7.921,4.956l4.189-6.696
			C76.13,134.018,77.06,131.077,73.752,129.008z"/>
		<polygon fill="#DC3D5F" points="208.967,41.411 206.346,55.859 215.498,54.529 209.062,41.397 		"/>
		<polygon fill="#DC3D5F" points="331.318,77.958 339.221,82.76 342.621,68.541 342.539,68.491 		"/>
		<path fill="#DC3D5F" d="M74.546,136.549l-4.189,6.696l-7.921-4.956l4.317-6.9c1.839-2.94,3.856-4.348,7-2.381
			C77.06,131.077,76.13,134.018,74.546,136.549z"/>
		<path fill="#DC3D5F" d="M206.346,55.859l2.621-14.448l0.096-0.014l6.436,13.132L206.346,55.859z"/>
		<path fill="#DC3D5F" d="M307.717,54.497c-1.225,3.705-4.302,3.499-7.138,2.561l-7.5-2.48l2.935-8.872l7.729,2.555
			C307.034,49.351,308.881,50.976,307.717,54.497z"/>
		<g>
			<path fill="#DC3D5F" d="M219.534,422.516l-6.51-0.721l-1.082,9.766l7.325,0.812c3.159,0.352,5.716-1.305,6.045-4.273
				C225.695,424.652,223.412,422.945,219.534,422.516z"/>
			<path fill="#DC3D5F" d="M327.143,381.459c-25.608,16.162-55.934,25.535-88.451,25.568c-32.194,0.035-62.255-9.093-87.735-24.904
				l-28.03,42.945c33.49,21.043,73.112,33.227,115.586,33.227c42.926,0,82.942-12.438,116.659-33.896L327.143,381.459z
				 M176.845,414.525c-0.794,1.809-2.802,2.188-4.565,1.416c-3.351-1.472-0.662-5.921-7.409-8.88
				c-3.352-1.471-5.881-0.739-6.849,1.466c-0.967,2.203,1.369,4.069,3.43,5.604l5.441,4.021c5.956,4.399,5.909,9.061,4.284,12.766
				c-2.516,5.732-8.714,8.113-17.445,4.281c-9.171-4.025-11.259-10.412-9.75-13.851c0.774-1.764,2.596-2.438,4.359-1.664
				c3.923,1.724,0.395,7.011,7.713,10.224c3.748,1.645,6.729,0.481,7.659-1.635c0.561-1.279,0.563-2.962-1.636-4.662l-7.247-5.652
				c-5.835-4.559-5.439-8.697-3.95-12.092c3.097-7.056,10.784-6.838,16.914-4.148C173.438,404.197,178.703,410.293,176.845,414.525z
				 M233.164,428.967c-0.694,6.271-5.564,10.435-13.177,9.59l-8.713-0.963l-1.034,9.334c-0.259,2.347-1.967,3.756-4.359,3.49
				c-2.394-0.264-3.751-2.014-3.491-4.359l2.942-26.569c0.387-3.494,2.327-4.394,5.104-4.086l12.016,1.33
				C229.059,417.463,234.013,421.307,233.164,428.967z M268.938,450.611c-2.385,0.34-4.135-1.017-4.467-3.353l-3.959-27.744
				c-0.332-2.336,0.969-4.129,3.354-4.469c2.384-0.34,4.133,1.017,4.466,3.354l3.958,27.743
				C272.621,448.48,271.32,450.271,268.938,450.611z M332.382,431.264c-2.299,0.994-3.261,0.832-4.819-0.225l-21.201-14.445
				l-0.09,0.037l7.935,18.348c1.013,2.343,0.185,4.064-1.981,5.003c-2.166,0.936-3.99,0.36-5.002-1.982l-10.916-25.244
				c-1.301-3.004-0.377-4.873,2.719-6.211c1.502-0.647,3.076-0.647,4.447,0.334l21.537,14.98l0.088-0.039l-8.162-18.875
				c-1.013-2.343-0.184-4.066,1.981-5.002c2.167-0.938,3.989-0.361,5.003,1.981l10.801,24.977
				C335.963,427.773,335.434,429.945,332.382,431.264z"/>
		</g>
	</g>
	<g id="Layer_10">
	</g>
</g>
<g id="Layer_12">
	<g>
		<path fill="#DC3D5F" d="M113.147,287.781c-1.137,2.212-1.931,4.605-2.312,7.078c-0.381,2.471-0.39,5.019,0.039,7.5
			c0.035,0.207,0.086,0.41,0.125,0.615c2.02-7.693,5.852-14.971,7.876-18.5l-2.743-1.203
			C114.981,284.664,113.979,286.177,113.147,287.781z"/>
		<path fill="#DC3D5F" d="M239.104,213.378c3.656,0,6.631,2.974,6.631,6.63c0,0.37-0.037,0.731-0.096,1.084
			c1.133-1.426,1.815-3.226,1.815-5.184c0-4.605-3.746-8.352-8.351-8.352c-4.605,0-8.351,3.747-8.351,8.352
			c0,1.959,0.683,3.76,1.817,5.187c-0.059-0.354-0.097-0.716-0.097-1.087C232.476,216.352,235.449,213.378,239.104,213.378z"/>
		<path fill="#DC3D5F" d="M238.729,86c-85.923,0-155.578,69.654-155.578,155.578c0,85.924,69.654,155.579,155.578,155.579
			c85.926,0,155.58-69.654,155.58-155.579C394.309,155.654,324.654,86,238.729,86z M126.893,285.48
			c-0.056,0.115-0.128,0.232-0.2,0.334c-2.725,3.768-5.117,7.812-7.324,11.982c-1.101,2.086-2.152,4.204-3.155,6.348
			c-0.999,2.137-1.97,4.319-2.842,6.479l-0.031,0.076c-0.304,0.754-1.162,1.118-1.916,0.812c-0.323-0.131-0.575-0.363-0.733-0.646
			l-0.002-0.004c-0.687-1.382-1.16-2.625-1.578-3.979c-0.417-1.329-0.76-2.682-0.995-4.055c-0.462-2.745-0.604-5.556-0.334-8.349
			c0.268-2.791,0.922-5.556,1.905-8.203c0.477-1.332,1.046-2.633,1.694-3.891c0.622-1.275,1.336-2.504,2.069-3.726l0.001-0.002
			l0.043-0.056c0.733-0.943,2.013-1.211,3.044-0.707l9.2,4.496l0.112,0.055C126.977,282.998,127.443,284.355,126.893,285.48z
			 M132.051,276.081l-0.013,0.017c-1.462,1.948-4.228,2.344-6.176,0.881c-1.932-1.451-2.333-4.185-0.914-6.131
			c3.754-5.139,8.394-9.315,13.291-12.884c4.914-3.565,10.126-6.539,15.461-9.146c5.339-2.604,10.812-4.836,16.365-6.793
			c2.777-0.979,5.576-1.886,8.399-2.727c2.846-0.84,5.62-1.608,8.637-2.298c2.632-0.602,5.253,1.043,5.854,3.675
			c0.603,2.631-1.043,5.252-3.675,5.854c-0.014,0.004-0.028,0.007-0.042,0.01l-0.091,0.02c-2.575,0.551-5.338,1.267-7.995,2.015
			c-2.679,0.756-5.342,1.579-7.98,2.467c-5.276,1.778-10.458,3.812-15.45,6.161c-4.988,2.352-9.797,5.021-14.204,8.126
			C139.123,268.43,135.12,271.992,132.051,276.081z M177.211,323.663c-0.075,0.574-0.18,1.132-0.299,1.683
			c-0.242,1.309-0.606,2.556-1.058,3.746c-0.683,1.749-1.508,3.384-2.606,4.917c-0.109,0.152-0.267,0.243-0.435,0.284
			c-0.015,0.004-0.028,0.013-0.043,0.016c-0.059,0.013-0.118,0.004-0.178,0.001c-0.039-0.002-0.077,0.005-0.116-0.004
			c-0.036-0.008-0.068-0.028-0.103-0.042c-0.057-0.021-0.115-0.033-0.167-0.068c-0.003-0.003-0.004-0.007-0.008-0.011
			c-0.002-0.001-0.004-0.001-0.005-0.002c-0.027-0.02-0.036-0.052-0.06-0.072c-0.177-0.163-0.28-0.387-0.258-0.616l0.003-0.033
			c0.242-2.441,0.488-4.874,0.553-7.188c0.002-0.95-0.034-1.876-0.138-2.759c-0.171-1.486-0.59-2.81-1.19-3.62
			c-0.198-0.28-0.427-0.489-0.67-0.682c-0.018,0.06-0.04,0.115-0.058,0.174c-0.667,2.161-1.229,4.371-1.668,6.618
			c-0.432,2.24-0.77,4.55-0.872,6.819v0.032c0.002,0.352-0.281,0.639-0.633,0.641c-0.307,0.001-0.565-0.216-0.626-0.505
			c-0.616-2.354-0.981-4.711-1.25-7.117c-0.25-2.32-0.373-4.667-0.384-7.027c-0.981,0.279-1.796,0.668-2.446,1.287
			c-0.786,0.722-1.414,1.884-1.793,3.32c-0.316,1.555-0.479,3.258-0.618,4.984l-0.004,0.043c-0.019,0.235-0.171,0.424-0.373,0.517
			c-0.018,0.008-0.032,0.021-0.05,0.028c-0.026,0.009-0.055,0.008-0.082,0.013c-0.052,0.012-0.103,0.028-0.159,0.026
			c-0.21-0.009-0.394-0.121-0.502-0.283c-1.066-1.616-1.705-3.425-1.93-5.443c-0.053-0.509-0.071-1.04-0.047-1.583
			c-0.05-1.481,0.14-3.057,0.852-4.671c0.479-1.096,1.274-2.168,2.299-2.996c1.034-0.812,2.243-1.372,3.418-1.64
			c0.583-0.141,1.157-0.229,1.719-0.272c0.239-2.773,0.619-5.555,1.174-8.325l0.019-0.094c0.534-2.666,3.128-4.395,5.794-3.859
			s4.395,3.127,3.861,5.793c-0.099,0.492-0.279,0.973-0.506,1.393c-1.077,1.975-2.06,4.021-2.945,6.127
			c0.52,0.229,1.032,0.503,1.509,0.859c1.151,0.854,1.97,2.055,2.45,3.201C177.513,319.613,177.443,321.729,177.211,323.663z
			 M208.565,258.047l-0.256,0.12l-0.319,0.149l-0.492,0.258c-0.341,0.186-0.692,0.391-1.045,0.609
			c-0.706,0.438-1.416,0.918-2.116,1.436c-1.402,1.029-2.768,2.183-4.083,3.412c-2.633,2.463-5.067,5.234-7.312,8.181
			c-4.492,5.906-8.237,12.506-11.416,19.399l-0.004,0.008c-1.043,2.263-3.724,3.251-5.986,2.208c-2.24-1.033-3.23-3.675-2.237-5.923
			c3.28-7.418,7.203-14.639,12.119-21.325c2.462-3.339,5.172-6.539,8.229-9.495c1.531-1.477,3.146-2.891,4.888-4.215
			c0.871-0.663,1.775-1.301,2.729-1.914c0.479-0.307,0.97-0.605,1.486-0.898l0.806-0.437l0.439-0.222
			c0.169-0.08,0.284-0.138,0.571-0.26c2.481-1.06,5.351,0.094,6.409,2.575C212.009,254.139,210.931,256.934,208.565,258.047z
			 M219.131,196.447c-1.258,0-3.367-0.813-3.367-6.264c0-5.451,2.109-6.265,3.367-6.265c1.257,0,3.366,0.814,3.366,6.265
			C222.497,195.634,220.388,196.447,219.131,196.447z M226.089,215.909c0-7.177,5.839-13.017,13.017-13.017
			c7.177,0,13.017,5.839,13.017,13.017c0,7.177-5.84,13.015-13.017,13.015C231.928,228.924,226.089,223.085,226.089,215.909z
			 M238.516,343.275c-3.598,0-6.523-2.948-6.523-6.572c0-0.014,0.002-0.025,0.002-0.039c0.003-0.425,0.045-0.84,0.124-1.242
			c0.435-3.938,2.095-16.019,6.5-20.463c0.176-0.178,0.489-0.178,0.666,0c4.573,4.615,5.521,17.431,5.692,20.88
			c0.039,0.283,0.063,0.57,0.063,0.864C245.04,340.327,242.111,343.275,238.516,343.275z M264.796,238.126
			c-21.726,10.87-21.011,27.588-20.969,28.295c0.003,0.054-0.009,0.104-0.007,0.157c0.002,0.059,0.018,0.113,0.018,0.171v31.917
			c0,2.699-2.188,4.889-4.888,4.889s-4.888-2.188-4.888-4.889v-31.789c-0.126-2.611-0.317-24.212,26.47-37.551
			c0.021-0.011,0.045-0.015,0.067-0.025c0.008-0.004,0.014-0.009,0.021-0.013c17.632-8.352,29.024-26.347,29.024-45.846
			c0-27.954-22.742-50.695-50.695-50.695c-27.954,0-50.696,22.742-50.696,50.695c0,2.699-2.188,4.888-4.888,4.888
			c-2.7,0-4.888-2.188-4.888-4.888c0-33.344,27.128-60.471,60.472-60.471c33.344,0,60.471,27.127,60.471,60.471
			c0,23.257-13.588,44.72-34.616,54.68C264.802,238.124,264.799,238.125,264.796,238.126z M276.312,166.501
			c-1.119,0.443-2.386-0.105-2.828-1.224c-0.029-0.077-0.057-0.156-0.076-0.234c-1.336-4.95-3.917-9.63-7.309-13.72
			c-1.692-2.049-3.584-3.959-5.621-5.716c-2.039-1.747-4.226-3.381-6.549-4.732l-0.014-0.008c-0.16-0.092-0.214-0.297-0.121-0.456
			c0.086-0.148,0.27-0.206,0.423-0.138c2.544,1.119,4.927,2.517,7.228,4.074c2.291,1.565,4.472,3.318,6.492,5.269
			c4.039,3.888,7.449,8.625,9.592,14.041l0.008,0.018C277.979,164.793,277.432,166.059,276.312,166.501z M280.148,174.05
			c0.4,0.41,0.631,0.97,0.631,1.54c0,0.57-0.229,1.13-0.631,1.54c-0.408,0.41-0.969,0.64-1.539,0.64c-0.569,0-1.131-0.23-1.541-0.64
			c-0.408-0.41-0.64-0.97-0.64-1.54c0-0.57,0.23-1.13,0.64-1.53C277.88,173.25,279.33,173.25,280.148,174.05z M262.257,190.139
			c0,5.45-2.106,6.264-3.362,6.264c-1.258,0-3.367-0.814-3.367-6.264c0-5.45,2.109-6.264,3.367-6.264
			C260.148,183.875,262.257,184.689,262.257,190.139z M296.852,291.62l-0.006-0.011c-3.179-6.894-6.924-13.493-11.416-19.399
			c-2.244-2.946-4.68-5.717-7.312-8.181c-1.315-1.229-2.681-2.381-4.083-3.412c-0.7-0.516-1.41-0.998-2.116-1.436
			c-0.353-0.219-0.704-0.424-1.045-0.609l-0.492-0.258l-0.319-0.149l-0.246-0.116c-2.441-1.146-3.492-4.054-2.348-6.496
			c1.12-2.387,3.932-3.439,6.338-2.416c0.287,0.122,0.402,0.18,0.571,0.26l0.438,0.222l0.807,0.437
			c0.518,0.293,1.008,0.592,1.486,0.898c0.953,0.613,1.856,1.25,2.729,1.914c1.741,1.324,3.355,2.738,4.889,4.215
			c3.058,2.956,5.768,6.156,8.229,9.495c4.916,6.687,8.838,13.907,12.118,21.325c1.008,2.279-0.022,4.943-2.302,5.951
			C300.516,294.852,297.881,293.852,296.852,291.62z M321.385,323.338c-0.226,2.02-0.863,3.827-1.931,5.443
			c-0.128,0.193-0.347,0.285-0.563,0.271c-0.02-0.001-0.037,0.003-0.058,0c-0.038-0.006-0.073-0.022-0.11-0.036
			c-0.039-0.014-0.08-0.018-0.117-0.039c-0.008-0.004-0.01-0.012-0.018-0.016c-0.002-0.002-0.005-0.002-0.007-0.003
			c-0.015-0.009-0.021-0.025-0.032-0.035c-0.146-0.109-0.244-0.266-0.261-0.439l-0.004-0.047c-0.14-1.727-0.302-3.429-0.616-4.981
			c-0.38-1.438-1.008-2.603-1.795-3.323c-0.65-0.619-1.465-1.008-2.445-1.287c-0.012,2.36-0.134,4.707-0.385,7.027
			c-0.27,2.406-0.634,4.763-1.25,7.117c-0.072,0.344-0.41,0.562-0.754,0.49c-0.301-0.063-0.507-0.329-0.505-0.625l0.001-0.033
			c-0.104-2.271-0.439-4.579-0.872-6.819c-0.438-2.247-1.001-4.457-1.668-6.618c-0.019-0.059-0.04-0.114-0.06-0.174
			c-0.242,0.19-0.473,0.4-0.67,0.682c-0.602,0.812-1.02,2.134-1.189,3.62c-0.104,0.88-0.141,1.805-0.139,2.751
			c0.064,2.317,0.312,4.753,0.555,7.196l0.003,0.032c0.03,0.31-0.132,0.592-0.386,0.734l0,0c-0.051,0.027-0.109,0.037-0.168,0.055
			c-0.039,0.012-0.074,0.033-0.117,0.038c-0.002,0-0.004,0-0.006,0s-0.002,0-0.002,0c-0.002,0-0.006-0.001-0.008,0
			c-0.275,0.024-0.533-0.101-0.687-0.312c-1.099-1.533-1.923-3.167-2.604-4.917c-0.453-1.193-0.818-2.442-1.062-3.755
			c-0.118-0.547-0.224-1.103-0.297-1.673c-0.23-1.935-0.302-4.051,0.627-6.396c0.479-1.146,1.3-2.347,2.45-3.2
			c0.478-0.356,0.99-0.631,1.51-0.859c-0.885-2.104-1.867-4.152-2.944-6.127c-1.303-2.388-0.423-5.378,1.964-6.681
			c2.389-1.303,5.379-0.424,6.682,1.965c0.24,0.439,0.406,0.9,0.502,1.369l0.021,0.113c0.556,2.772,0.935,5.553,1.175,8.326
			c0.562,0.046,1.137,0.133,1.719,0.272c1.175,0.267,2.383,0.827,3.416,1.64c1.025,0.828,1.822,1.9,2.301,2.996
			c0.711,1.612,0.9,3.186,0.852,4.667C321.455,322.295,321.438,322.828,321.385,323.338z M346.334,276.102l-0.016-0.021
			c-3.068-4.089-7.071-7.651-11.467-10.753c-4.406-3.105-9.217-5.775-14.203-8.126c-4.994-2.351-10.176-4.382-15.45-6.161
			c-2.64-0.889-5.302-1.711-7.98-2.467c-2.657-0.748-5.42-1.463-7.995-2.014l-0.063-0.015c-2.642-0.563-4.323-3.162-3.759-5.802
			c0.563-2.64,3.162-4.323,5.802-3.758c0.014,0.003,0.054,0.012,0.067,0.015c3.019,0.69,5.791,1.458,8.638,2.298
			c2.823,0.839,5.622,1.747,8.399,2.725c5.553,1.959,11.024,4.19,16.363,6.793c5.335,2.608,10.547,5.582,15.461,9.146
			c4.896,3.567,9.536,7.745,13.291,12.885c1.438,1.967,1.008,4.727-0.96,6.164C350.511,278.438,347.779,278.025,346.334,276.102z
			 M369.26,306.885c-0.417,1.354-0.891,2.599-1.576,3.979l-0.004,0.004c-0.396,0.71-1.293,0.963-2.002,0.565
			c-0.305-0.17-0.525-0.432-0.646-0.73l-0.032-0.078c-0.872-2.16-1.843-4.344-2.842-6.48c-1.005-2.143-2.056-4.261-3.155-6.347
			c-2.208-4.171-4.6-8.216-7.325-11.983c-0.733-1.015-0.506-2.432,0.509-3.164c0.104-0.075,0.211-0.142,0.321-0.195l0.124-0.061
			l9.2-4.494c1.073-0.524,2.34-0.202,3.045,0.705l0.043,0.057l0.002,0.002c0.733,1.223,1.447,2.449,2.069,3.725
			c0.648,1.26,1.218,2.56,1.693,3.891c0.982,2.648,1.638,5.412,1.904,8.203c0.271,2.795,0.128,5.604-0.334,8.35
			C370.021,304.203,369.677,305.555,369.26,306.885z"/>
		<path fill="#DC3D5F" d="M365.225,287.781c-0.832-1.605-1.834-3.117-2.984-4.51l-2.745,1.203c2.024,3.529,5.856,10.807,7.877,18.5
			c0.04-0.205,0.091-0.408,0.126-0.615c0.43-2.481,0.419-5.029,0.039-7.5C367.154,292.389,366.361,289.993,365.225,287.781z"/>
		<path fill="#DC3D5F" d="M111,302.977c-0.04-0.207-0.09-0.41-0.125-0.615c-0.429-2.482-0.419-5.03-0.039-7.5
			c0.381-2.473,1.174-4.867,2.312-7.079c0.833-1.604,1.834-3.117,2.985-4.511l2.743,1.205
			C116.851,288.005,113.019,295.281,111,302.977z"/>
		<path fill="#DC3D5F" d="M232.572,221.095c-1.135-1.426-1.817-3.227-1.817-5.187c0-4.605,3.745-8.352,8.351-8.352
			c4.604,0,8.351,3.747,8.351,8.352c0,1.958-0.683,3.758-1.815,5.184c0.059-0.354,0.096-0.714,0.096-1.084
			c0-3.656-2.975-6.63-6.631-6.63c-3.654,0-6.628,2.974-6.628,6.63C232.476,220.379,232.514,220.741,232.572,221.095z"/>
	</g>
</g>
</svg>
