<?xml version="1.0" encoding="utf-8"?>
<!-- Generator: Adobe Illustrator 16.0.0, SVG Export Plug-In . SVG Version: 6.00 Build 0)  -->
<!DOCTYPE svg PUBLIC "-//W3C//DTD SVG 1.1//EN" "http://www.w3.org/Graphics/SVG/1.1/DTD/svg11.dtd">
<svg version="1.1" id="Layer_1" xmlns="http://www.w3.org/2000/svg" xmlns:xlink="http://www.w3.org/1999/xlink" x="0px" y="0px"
	 width="100.203px" height="100.203px" viewBox="0 0 100.203 100.203" enable-background="new 0 0 100.203 100.203"
	 xml:space="preserve">
<g>
	<path fill-rule="evenodd" clip-rule="evenodd" fill="#39BDD1" d="M73.229,61.398c-0.364-0.733-0.87-1.436-1.446-2.018
		c-4.127-4.174-8.287-8.313-12.437-12.463c-0.21-0.209-0.414-0.424-0.634-0.622c-1.863-1.69-3.881-2.213-6.217-0.933
		c-1.122,0.615-2.315,1.097-3.489,1.606c-1.67,0.725-3.308,1.563-5.039,2.102c-4.9,1.519-9.349-2.322-9.574-6.874
		c-0.152-3.076,1.126-5.47,3.639-7.154c1.878-1.259,3.86-2.366,5.812-3.514c1.061-0.623,2.155-1.19,3.234-1.784
		c0.364-0.2,0.582-0.434,0.117-0.761c-2.038-1.435-4.241-2.259-6.781-1.833c-3.169,0.532-5.945,2.038-8.712,3.55
		c-1.64,0.897-3.218,1.912-4.873,2.783c-1.143,0.601-2.412,0.945-3.71,0.687c-1.394-0.277-2.779-0.635-4.133-1.07
		c-2.063-0.662-4.095-1.419-6.14-2.136c0,8.58,0,17.161,0,25.743c0.799,0.236,1.613,0.435,2.397,0.714
		c1.323,0.471,1.374,0.445,2.126-0.709c1.155-1.771,2.609-3.166,4.714-3.815c1.114-0.345,2.222-0.413,3.354-0.387
		c2.852,0.067,5.002,1.349,6.365,3.846c0.493,0.903,1.094,1.603,2.02,2.066c1.459,0.731,2.57,1.854,3.182,3.366
		c0.324,0.799,0.83,1.281,1.557,1.668c1.569,0.834,2.801,2.043,3.487,3.688c0.37,0.888,0.936,1.465,1.761,1.881
		c2.576,1.297,3.921,3.48,3.953,6.282c0.019,1.694,0.734,2.802,1.917,3.772c1.55,1.271,3.738,0.762,4.638-1.016
		c0.711-1.398,0.306-2.596-0.613-3.67c-0.738-0.857-1.605-1.604-2.373-2.436c-0.568-0.614-1.105-1.264-1.575-1.953
		c-0.141-0.209-0.004-0.607,0.006-0.92c0.272,0.052,0.586,0.035,0.811,0.17c0.333,0.199,0.614,0.49,0.894,0.766
		c0.949,0.937,1.878,1.889,2.828,2.822c0.701,0.693,1.398,1.394,2.139,2.043c1.01,0.885,2.668,0.959,3.711,0.22
		c1.172-0.831,1.588-2.3,0.961-3.652c-0.268-0.571-0.62-1.125-1.037-1.597c-0.783-0.886-1.662-1.684-2.46-2.559
		c-0.629-0.691-1.215-1.425-1.769-2.176c-0.142-0.195-0.088-0.535-0.125-0.807c0.266,0.033,0.598-0.021,0.786,0.116
		c0.636,0.463,1.248,0.965,1.819,1.507c1.32,1.258,2.588,2.57,3.924,3.813c0.495,0.46,1.085,0.849,1.692,1.15
		c0.93,0.464,1.818,0.26,2.615-0.391c1.581-1.285,1.726-3.16,0.3-4.805c-0.741-0.855-1.616-1.593-2.38-2.432
		c-0.726-0.801-1.417-1.637-2.052-2.513c-0.189-0.263-0.303-0.827-0.15-1.042c0.311-0.44,0.698-0.066,0.993,0.186
		c0.863,0.729,1.736,1.448,2.562,2.219c0.938,0.875,1.794,1.836,2.743,2.697c0.991,0.9,2.663,0.963,3.708,0.225
		C73.446,64.216,73.891,62.73,73.229,61.398z"/>
	<path fill-rule="evenodd" clip-rule="evenodd" fill="#FF6666" d="M88.539,44.688c0,3.251,0.004,6.503-0.003,9.756
		c-0.004,1.428-0.01,1.463-1.377,1.734c-1.881,0.375-3.767,0.716-5.659,1.023c-2.414,0.391-4.421-0.352-6.145-2.109
		c-3.761-3.832-7.584-7.605-11.382-11.402c-0.904-0.906-1.9-1.74-2.699-2.732c-1.735-2.154-4.708-2.151-6.761-1.266
		c-1.26,0.545-2.43,1.297-3.656,1.922c-2.458,1.25-4.913,2.511-7.399,3.701c-2.265,1.084-5.266-0.786-5.402-3.289
		c-0.107-1.975,0.637-3.341,2.453-4.294c2.828-1.486,5.552-3.171,8.334-4.746c2.439-1.382,4.898-2.73,7.347-4.095
		c0.815-0.455,1.646-0.889,2.438-1.381c2.212-1.374,4.27-0.88,6.138,0.615c2.567,2.059,5.123,4.141,7.54,6.371
		c1.592,1.469,3.335,1.811,5.311,1.406c3.181-0.652,6.345-1.377,9.515-2.071c0.24-0.052,0.479-0.107,0.721-0.155
		c0.42-0.083,0.671,0.055,0.673,0.519c0.002,0.344,0.013,0.689,0.013,1.035C88.539,38.38,88.539,41.533,88.539,44.688z"/>
	<path fill-rule="evenodd" clip-rule="evenodd" fill="#FF6666" d="M19.708,61.612c0.142-1.837,1.292-3.71,3.478-4.802
		c2.457-1.226,5.272,0.432,5.572,3.16c0.147,1.338,0.147,1.338,1.409,1.544c2.142,0.35,3.638,2.062,3.522,4.215
		c-0.045,0.823,0.247,0.831,0.904,0.865c2.104,0.11,3.328,0.979,3.789,2.684c0.163,0.602,0.154,1.269,0.124,1.901
		c-0.036,0.716,0.259,0.997,0.942,0.966c0.246-0.011,0.493-0.005,0.739,0.011c1.426,0.102,2.546,0.692,3.2,2.016
		c0.729,1.469,0.564,2.897-0.392,4.175c-1.366,1.825-3.273,2.631-5.527,2.547c-1.949-0.073-3.238-1.966-2.687-3.847
		c0.028-0.094,0.048-0.191,0.077-0.285c0.563-1.77,0.559-1.797-1.343-1.471c-0.941,0.163-1.814,0.264-2.671-0.333
		c-1.125-0.784-1.504-1.679-1.15-3.034c0.487-1.861,0.487-1.861-1.408-1.668c-1.79,0.181-2.652-0.27-3.379-1.69
		c-0.452-0.884-0.174-1.728,0.059-2.575c0.312-1.128,0.29-1.158-0.895-0.949c-0.435,0.078-0.874,0.164-1.313,0.176
		C20.831,65.266,19.73,64.177,19.708,61.612z"/>
</g>
<circle fill-rule="evenodd" clip-rule="evenodd" fill="none" stroke="#FFFFFF" stroke-width="7" stroke-miterlimit="10" cx="50.101" cy="50.102" r="46.601"/>
</svg>
