<?xml version="1.0" encoding="utf-8"?>
<!-- Generator: Adobe Illustrator 16.0.0, SVG Export Plug-In . SVG Version: 6.00 Build 0)  -->
<!DOCTYPE svg PUBLIC "-//W3C//DTD SVG 1.1//EN" "http://www.w3.org/Graphics/SVG/1.1/DTD/svg11.dtd">
<svg version="1.1" id="Layer_1" xmlns="http://www.w3.org/2000/svg" xmlns:xlink="http://www.w3.org/1999/xlink" x="0px" y="0px"
	 width="149.749px" height="149.749px" viewBox="0 0 149.749 149.749" enable-background="new 0 0 149.749 149.749"
	 xml:space="preserve">
<g>
	<path fill-rule="evenodd" clip-rule="evenodd" fill="#39BDD1" d="M111.341,90.979c-0.529-1.066-1.265-2.087-2.104-2.936
		c-6.002-6.069-12.054-12.09-18.09-18.126c-0.305-0.306-0.603-0.617-0.921-0.905c-2.711-2.461-5.646-3.22-9.046-1.357
		c-1.629,0.895-3.366,1.595-5.072,2.336c-2.43,1.056-4.813,2.275-7.329,3.058c-7.128,2.208-13.6-3.379-13.928-10
		c-0.221-4.474,1.64-7.956,5.294-10.405c2.732-1.832,5.615-3.442,8.454-5.111c1.542-0.907,3.135-1.731,4.704-2.596
		c0.529-0.291,0.847-0.631,0.17-1.107c-2.962-2.085-6.169-3.286-9.864-2.666c-4.608,0.772-8.646,2.964-12.671,5.164
		c-2.388,1.304-4.682,2.782-7.089,4.047c-1.661,0.874-3.507,1.374-5.396,0.998c-2.027-0.402-4.044-0.922-6.013-1.557
		c-3-0.961-5.958-2.063-8.932-3.106c0,12.48,0,24.964,0,37.446c1.164,0.343,2.346,0.63,3.489,1.036
		c1.923,0.687,1.996,0.649,3.092-1.028c1.681-2.58,3.793-4.604,6.856-5.55c1.622-0.502,3.232-0.602,4.88-0.563
		c4.148,0.096,7.275,1.961,9.258,5.594c0.717,1.313,1.591,2.327,2.937,3.005c2.123,1.063,3.739,2.697,4.629,4.896
		c0.47,1.162,1.206,1.863,2.266,2.426c2.28,1.212,4.074,2.972,5.072,5.364c0.538,1.291,1.36,2.131,2.562,2.734
		c3.746,1.887,5.704,5.063,5.75,9.14c0.028,2.466,1.066,4.075,2.789,5.487c2.253,1.851,5.434,1.108,6.747-1.477
		c1.034-2.034,0.445-3.776-0.895-5.338c-1.071-1.249-2.334-2.332-3.453-3.544c-0.822-0.895-1.607-1.837-2.286-2.84
		c-0.208-0.306-0.01-0.886,0.006-1.34c0.396,0.076,0.854,0.053,1.179,0.249c0.483,0.289,0.894,0.712,1.303,1.113
		c1.378,1.36,2.73,2.745,4.11,4.106c1.022,1.006,2.035,2.025,3.112,2.97c1.469,1.288,3.879,1.396,5.398,0.32
		c1.704-1.21,2.308-3.348,1.396-5.314c-0.386-0.829-0.9-1.637-1.506-2.322c-1.141-1.287-2.421-2.448-3.578-3.723
		c-0.916-1.003-1.768-2.07-2.572-3.166c-0.208-0.282-0.131-0.774-0.183-1.169c0.387,0.046,0.868-0.032,1.143,0.167
		c0.923,0.674,1.815,1.403,2.645,2.191c1.923,1.829,3.767,3.741,5.709,5.545c0.72,0.67,1.58,1.235,2.462,1.677
		c1.351,0.672,2.646,0.377,3.805-0.57c2.299-1.871,2.509-4.597,0.437-6.989c-1.079-1.244-2.352-2.316-3.46-3.536
		c-1.059-1.165-2.064-2.381-2.986-3.656c-0.276-0.381-0.439-1.201-0.218-1.517c0.448-0.641,1.015-0.095,1.443,0.271
		c1.256,1.061,2.526,2.105,3.728,3.227c1.361,1.274,2.608,2.671,3.987,3.925c1.444,1.309,3.875,1.4,5.395,0.326
		C111.658,95.076,112.304,92.917,111.341,90.979z"/>
	<path fill-rule="evenodd" clip-rule="evenodd" fill="#FF6666" d="M133.611,66.67c0,4.729,0.006,9.46-0.005,14.192
		c-0.007,2.076-0.014,2.126-2.003,2.524c-2.735,0.547-5.479,1.039-8.233,1.488c-3.507,0.567-6.429-0.513-8.936-3.067
		c-5.471-5.576-11.032-11.063-16.555-16.587c-1.319-1.32-2.767-2.532-3.93-3.978c-2.522-3.134-6.847-3.127-9.831-1.838
		c-1.834,0.792-3.534,1.883-5.318,2.794c-3.578,1.817-7.147,3.652-10.765,5.385c-3.295,1.577-7.66-1.144-7.859-4.784
		c-0.155-2.871,0.929-4.862,3.57-6.248c4.114-2.158,8.076-4.611,12.125-6.903c3.547-2.008,7.122-3.972,10.685-5.956
		c1.188-0.662,2.396-1.293,3.549-2.009c3.219-1.998,6.211-1.28,8.928,0.895c3.736,2.993,7.452,6.022,10.967,9.267
		c2.316,2.136,4.854,2.634,7.726,2.047c4.629-0.95,9.229-2.004,13.841-3.016c0.348-0.075,0.697-0.154,1.047-0.225
		c0.612-0.121,0.976,0.08,0.979,0.754c0.001,0.502,0.019,1.002,0.02,1.505C133.611,57.497,133.611,62.083,133.611,66.67z"/>
	<path fill-rule="evenodd" clip-rule="evenodd" fill="#FF6666" d="M33.488,91.29c0.206-2.672,1.881-5.396,5.06-6.984
		c3.574-1.784,7.669,0.627,8.105,4.599c0.214,1.944,0.214,1.944,2.05,2.244c3.115,0.509,5.292,2.998,5.124,6.131
		c-0.065,1.196,0.36,1.208,1.313,1.259c3.061,0.159,4.842,1.424,5.512,3.901c0.238,0.877,0.225,1.847,0.181,2.767
		c-0.052,1.044,0.376,1.452,1.37,1.406c0.356-0.017,0.717-0.01,1.075,0.016c2.072,0.147,3.703,1.008,4.654,2.932
		c1.06,2.138,0.821,4.217-0.57,6.073c-1.989,2.654-4.762,3.825-8.042,3.704c-2.833-0.105-4.709-2.859-3.907-5.595
		c0.042-0.138,0.07-0.278,0.113-0.415c0.819-2.573,0.813-2.615-1.953-2.139c-1.37,0.237-2.64,0.381-3.887-0.485
		c-1.637-1.142-2.188-2.441-1.672-4.412c0.707-2.707,0.707-2.707-2.049-2.43c-2.603,0.265-3.857-0.391-4.913-2.456
		c-0.658-1.287-0.254-2.513,0.085-3.747c0.452-1.641,0.421-1.684-1.302-1.38c-0.633,0.113-1.272,0.237-1.911,0.255
		C35.124,96.604,33.521,95.021,33.488,91.29z"/>
</g>
<circle fill-rule="evenodd" clip-rule="evenodd" fill="none" stroke="#263F52" stroke-width="7" stroke-miterlimit="10" cx="74.875" cy="74.874" r="71.375"/>
</svg>
