<?xml version="1.0" encoding="utf-8"?>
<!-- Generator: Adobe Illustrator 16.0.0, SVG Export Plug-In . SVG Version: 6.00 Build 0)  -->
<!DOCTYPE svg PUBLIC "-//W3C//DTD SVG 1.1//EN" "http://www.w3.org/Graphics/SVG/1.1/DTD/svg11.dtd">
<svg version="1.1" xmlns="http://www.w3.org/2000/svg" xmlns:xlink="http://www.w3.org/1999/xlink" x="0px" y="0px" width="120px"
	 height="124px" viewBox="0 0 120 124" enable-background="new 0 0 120 124" xml:space="preserve">
<g id="Layer_1">
</g>
<g id="Week_View">
	<path fill="#FFFFFF" d="M13.495,124h93.07c8.979,0,13.436-4.082,13.436-13.063V25.625C120,16.646,115.543,11,106.564,11H103v21.566
		C103,37.029,97.992,40,94.316,40H83.433C78.791,40,73,36.369,73,32.154V11H47v21.154C47,35.422,42.885,40,39.211,40H26.558
		C22.884,40,17,35.83,17,32.154V11h-3.505C4.514,11,0,16.646,0,25.625v85.312C0,119.918,4.514,124,13.495,124z M12,54h96v58H12V54z"
		/>
	<circle fill="#FFBFCF" cx="60.144" cy="70.908" r="9.905"/>
	<circle fill="#D1C1FF" cx="75.706" cy="93.389" r="9.905"/>
	<circle fill="#AEE2FF" cx="44.581" cy="93.389" r="9.905"/>
	<path fill="#FFFFFF" d="M31.125,0C27.858,0,25,4.373,25,6.417V26h15V6.417C40,4.373,37.848,0,34.583,0H31.125z"/>
	<path fill="#FFFFFF" d="M86.459,0C83.191,0,81,4.373,81,6.417V26h15V6.417C96,4.373,93.184,0,89.916,0H86.459z"/>
</g>
</svg>
