<?xml version="1.0" encoding="utf-8"?>
<!-- Generator: Adobe Illustrator 16.0.0, SVG Export Plug-In . SVG Version: 6.00 Build 0)  -->
<!DOCTYPE svg PUBLIC "-//W3C//DTD SVG 1.1//EN" "http://www.w3.org/Graphics/SVG/1.1/DTD/svg11.dtd">
<svg version="1.1" id="Layer_1" xmlns="http://www.w3.org/2000/svg" xmlns:xlink="http://www.w3.org/1999/xlink" x="0px" y="0px"
	 width="18.8px" height="24.2px" viewBox="0 0 18.8 24.2" enable-background="new 0 0 18.8 24.2" xml:space="preserve">
<g>
	<path fill="#FCBECF" d="M0,0c6.3,2.9,12.5,5.7,18.8,8.6c-0.9,0.8-1.7,1.6-2.6,2.4c-1,0.9-2,1.799-3,2.7
		c-0.201,0.2-0.4,0.2-0.601,0.1C11,13,9.4,12.3,7.8,11.6C6,10.7,4.2,9.9,2.3,9.1C1.8,8.8,1.2,8.6,0.7,8.3C0.5,8.1,0.3,7.7,0.3,7.5
		c0-1.1-0.1-2.2-0.1-3.3C0.1,3,0.1,1.9,0,0.7C0,0.5,0,0.3,0,0z"/>
	<path fill="#FCBECF" d="M0.4,11.9c3.2,1.5,6.3,2.899,9.5,4.399C6.9,19,4,21.6,1,24.2c-0.1-0.699-0.1-1.4-0.2-2
		c0-0.9-0.1-1.8-0.1-2.699C0.6,17.2,0.4,15,0.3,12.7C0.4,12.5,0.4,12.3,0.4,11.9z"/>
</g>
</svg>
