<?xml version="1.0" encoding="utf-8"?>
<!-- Generator: Adobe Illustrator 16.0.0, SVG Export Plug-In . SVG Version: 6.00 Build 0)  -->
<!DOCTYPE svg PUBLIC "-//W3C//DTD SVG 1.1//EN" "http://www.w3.org/Graphics/SVG/1.1/DTD/svg11.dtd">
<svg version="1.1" id="Layer_1" xmlns="http://www.w3.org/2000/svg" xmlns:xlink="http://www.w3.org/1999/xlink" x="0px" y="0px"
	 width="94.605px" height="94.605px" viewBox="0 0 94.605 94.605" enable-background="new 0 0 94.605 94.605" xml:space="preserve">
<g>
	<path fill="#212121" d="M25.605,7.191c0.568,1.154,1.216,2.813,1.943,4.973c0.724,2.162,1.476,4.707,2.253,7.638
		c0.777,2.931,1.579,6.01,2.409,9.236c0.828,3.228,1.632,6.483,2.409,9.769c0.777,3.286,1.527,6.381,2.253,9.281
		c0.311,0.711,0.518,1.096,0.622,1.154c0.102,0.119,0.151-0.133,0.255-0.075c0.518-0.058,7.308-4.16,8.75-5.104
		c1.712-1.121,2.979-1.876,4.656-2.938c1.191-0.753,1.33-0.876,2.062-1.258c-0.45-3.138-1.02-7.328-1.16-8.724
		c-0.223-2.229-0.447-4.404-0.67-6.522c-0.223-2.116-0.447-4.214-0.67-6.295c-0.223-2.079-0.484-4.291-0.782-6.635
		c-0.67,0-2.401-0.057-5.194-0.17c-2.792-0.113-5.938-0.207-9.439-0.283c-0.595-0.378-1.061-0.699-1.396-0.964
		c-0.335-0.264-0.428-1.001-0.279-2.212c1.267-0.15,2.887-0.208,4.859-0.17c1.972,0.039,3.983,0.096,6.032,0.17
		c2.047,0.076,4.021,0.19,5.92,0.34c1.898,0.152,3.443,0.266,4.635,0.34c9.234,1.06,16.514,2.478,21.838,4.253
		c1.726,0.576,3.28,1.163,4.696,1.759C72.988,5.672,60.812,0,47.303,0c-8.246,0-15.996,2.114-22.746,5.823
		C24.836,5.887,25.185,6.34,25.605,7.191z"/>
	<path fill="#212121" d="M57.344,38.172c2.457-0.454,5.343-1.471,8.733-2.492c3.387-1.021,6.627-2.116,9.717-3.289
		c3.09-1.172,5.815-2.382,7.976-3.63s3.23-2.4,3.23-3.459V24.28c-1-1.134-1.592-2.306-3.676-3.516
		c-2.086-1.209-4.724-2.343-7.813-3.403c-3.092-1.058-6.469-2.042-10.078-2.949c-3.613-0.907-7.106-1.588-10.458-2.042
		c0.297,3.328,0.589,7.108,0.888,11.343C56.159,27.949,56.674,32.954,57.344,38.172z"/>
	<path fill="#212121" d="M89.366,29.498c-1.117,1.287-2.924,2.552-5.418,3.8c-2.496,1.248-4.87,2.019-7.886,3.077
		c-3.016,1.06-6.129,2.027-9.167,2.729c-4.552,1.052-6.395,1.192-8.479,1.646c0.744,2.042,2.203,4.288,3.248,5.422
		c1.041,1.134,2.381,2.534,4.021,4.197c2.457,1.967,4.578,3.648,6.365,5.047c1.789,1.4,3.48,2.666,5.084,3.801
		c1.6,1.134,3.238,2.211,4.914,3.232c1.676,1.021,3.631,2.174,5.865,3.459c0.875,0.355,1.686,0.679,2.444,0.976
		c2.719-5.968,4.246-12.595,4.246-19.581c0-6.805-1.448-13.269-4.035-19.115C90.231,28.65,89.836,29.089,89.366,29.498z"/>
	<path fill="#212121" d="M29.413,85.256c0.828,0.088,1.501,0.073,2.021-0.045c1.139-0.119,2.149-0.371,3.031-0.755
		c0.879-0.386,1.683-0.814,2.409-1.288c1.035-0.652,1.579-1.865,1.632-3.641c0.051-1.776-0.182-3.924-0.7-6.439
		c-0.52-2.518-1.219-5.299-2.098-8.348c-0.881-3.049-1.685-6.172-2.409-9.369c-2.176,1.598-4.274,3.241-6.295,4.928
		c-2.02,1.688-3.783,3.479-5.284,5.373c-1.503,1.895-2.642,3.938-3.419,6.129c-0.777,2.189-1.01,4.588-0.7,7.193
		c0.724,1.243,1.501,2.234,2.332,2.975c0.828,0.74,1.709,1.317,2.642,1.732c0.933,0.414,1.916,0.725,2.953,0.933
		c1.034,0.206,2.021,0.399,2.953,0.577C28.271,85.151,28.582,85.166,29.413,85.256z"/>
	<path fill="#212121" d="M12.395,79.127c-0.365-1.392-0.389-3.006-0.078-4.84c0.311-1.836,1.19-3.938,2.642-6.306
		c0.933-1.538,1.967-2.976,3.108-4.308c1.139-1.332,2.382-2.619,3.73-3.863c1.345-1.242,2.875-2.471,4.584-3.686
		c1.71-1.213,3.599-2.5,5.673-3.863c0-0.473-0.233-1.731-0.699-3.773c-0.466-2.043-1.064-4.5-1.788-7.372
		c-0.726-2.871-1.554-5.979-2.486-9.325c-0.933-3.345-1.865-6.572-2.798-9.681s-1.814-5.935-2.642-8.481
		c-0.673-2.061-1.24-3.688-1.707-4.896C7.875,17.306,0,31.38,0,47.303c0,12.324,4.716,23.544,12.438,31.962
		C12.425,79.218,12.407,79.175,12.395,79.127z"/>
	<path fill="#212121" d="M88.026,69.651c-1.49-0.528-3.24-1.265-5.25-2.212c-2.012-0.944-4.264-2.192-6.758-3.743
		c-2.496-1.549-5.27-3.534-8.322-5.954c-1.268-0.982-2.42-1.833-3.463-2.553c-1.043-0.718-1.938-1.342-2.68-1.871
		c-0.82-0.605-1.604-1.135-2.348-1.588c0.148,0.906,0.354,2.211,0.615,3.912c0.26,1.702,0.539,3.612,0.838,5.729
		c0.297,2.118,0.615,4.311,0.949,6.579c0.336,2.269,0.65,4.423,0.949,6.466c0.297,2.041,0.596,3.855,0.895,5.443
		c0.297,1.588,0.559,2.723,0.781,3.403c-1.117,0.454-2.197,0.528-3.238,0.228c-1.045-0.304-1.826-0.417-2.346-0.341
		c-0.299-4.991-0.803-10.245-1.51-15.767c-0.707-5.52-3.19-23.084-3.358-23.836c-0.033-0.147-0.104-0.587-0.2-1.215
		c-5.373,2.727-10.369,7.412-15.019,10.512c0.933,4.855,1.885,9.158,2.506,12.118c0.622,2.96,1.112,5.373,1.477,7.238
		c0.362,1.865,0.568,3.375,0.622,4.529c0.051,1.155-0.026,2.354-0.233,3.597c-0.209,1.361-0.597,2.472-1.166,3.33
		c-0.571,0.857-1.27,1.555-2.098,2.088c-0.831,0.533-1.736,0.961-2.72,1.287c-0.986,0.325-1.943,0.607-2.875,0.844
		c-2.176,0.355-4.146,0.518-5.906,0.488c-1.763-0.03-3.342-0.192-4.74-0.488c-0.256-0.055-0.501-0.116-0.748-0.178
		c7.173,4.382,15.602,6.908,24.621,6.908c17.926,0,33.52-9.972,41.544-24.669C88.578,69.845,88.309,69.752,88.026,69.651z"/>
</g>
</svg>
