<?xml version="1.0" encoding="utf-8"?>
<!-- Generator: Adobe Illustrator 16.0.0, SVG Export Plug-In . SVG Version: 6.00 Build 0)  -->
<!DOCTYPE svg PUBLIC "-//W3C//DTD SVG 1.1//EN" "http://www.w3.org/Graphics/SVG/1.1/DTD/svg11.dtd">
<svg version="1.1" xmlns="http://www.w3.org/2000/svg" xmlns:xlink="http://www.w3.org/1999/xlink" x="0px" y="0px" width="37px"
	 height="37px" viewBox="0 0 37 37" enable-background="new 0 0 37 37" xml:space="preserve">
<g id="Layer_1">
</g>
<g id="Logo">
	<g>
		<circle fill="#43ADE1" cx="18.556" cy="18.445" r="17.444"/>
		<path fill="#FFFFFF" d="M9.628,26.871l4.45-7.018l6.673-1.805c0.046-0.012,0.087-0.043,0.113-0.084l0.688-1.084
			c0.043-0.068,0.04-0.156-0.008-0.221c-0.049-0.066-0.133-0.095-0.21-0.073l-6.261,1.693l1.301-2.052l6.677-1.805
			c0.048-0.013,0.09-0.043,0.115-0.084l0.692-1.091c0.044-0.069,0.041-0.157-0.007-0.223s-0.131-0.093-0.21-0.073l-6.27,1.701
			l0.102-0.16c0.018-0.027,1.764-2.679,5.342-3.16c0.003,0,0.335-0.058,0.796-0.058c0.714,0,1.697,0.134,2.333,0.769
			c0.632,0.629,0.822,1.682,0.563,3.127c-0.413,2.297-2.027,3.785-5.4,4.976c-0.006,0.001-0.011,0.005-0.016,0.006l-6.719,1.817
			c-0.048,0.014-0.088,0.043-0.114,0.086l-0.685,1.08c-0.045,0.068-0.041,0.155,0.007,0.222c0.048,0.064,0.131,0.095,0.21,0.073
			l7.611-2.047c3.683-1.314,5.875-3.387,6.342-5.992c0.335-1.874,0.029-3.301-0.911-4.238c-0.941-0.939-2.275-1.137-3.229-1.137
			c-0.587,0-0.987,0.074-0.985,0.074l0,0c-4.149,0.557-6.123,3.598-6.206,3.727L9.296,24.98v0.001L9.628,26.871z"/>
	</g>
</g>
</svg>
