<?xml version="1.0" encoding="utf-8"?>
<!-- Generator: Adobe Illustrator 16.0.0, SVG Export Plug-In . SVG Version: 6.00 Build 0)  -->
<!DOCTYPE svg PUBLIC "-//W3C//DTD SVG 1.1//EN" "http://www.w3.org/Graphics/SVG/1.1/DTD/svg11.dtd">
<svg version="1.1" xmlns="http://www.w3.org/2000/svg" xmlns:xlink="http://www.w3.org/1999/xlink" x="0px" y="0px" width="16.3px"
	 height="21.1px" viewBox="0 0 16.3 21.1" enable-background="new 0 0 16.3 21.1" xml:space="preserve">
<g id="Layer_1">
</g>
<g id="Controls">
	<g>
		<path fill-rule="evenodd" clip-rule="evenodd" fill="#E00734" d="M0,0c5.5,2.5,10.9,5,16.3,7.5c-0.8,0.7-1.5,1.4-2.3,2.1
			c-0.9,0.8-1.8,1.5-2.6,2.3c-0.2,0.2-0.3,0.2-0.5,0.1C9.6,11.3,1,7.5,0.6,7.2C0.2,7.1,0.3,6.7,0.3,6.5C0.2,5.6,0.2,4.6,0.2,3.7
			c0-1-0.1-2.1-0.2-3.1C0,0.4,0,0.3,0,0z"/>
		<path fill-rule="evenodd" clip-rule="evenodd" fill="#E00734" d="M0.4,10.4c2.8,1.3,5.5,2.5,8.3,3.8c-2.6,2.3-5.1,4.6-7.7,6.9
			c-0.1-0.6-0.1-1.2-0.1-1.7c0-0.8-0.1-1.6-0.1-2.4c-0.1-2-0.2-3.9-0.3-5.9C0.4,10.9,0.4,10.7,0.4,10.4z"/>
	</g>
</g>
</svg>
