<?xml version="1.0" encoding="utf-8"?>
<!-- Generator: Adobe Illustrator 16.0.0, SVG Export Plug-In . SVG Version: 6.00 Build 0)  -->
<!DOCTYPE svg PUBLIC "-//W3C//DTD SVG 1.1//EN" "http://www.w3.org/Graphics/SVG/1.1/DTD/svg11.dtd">
<svg version="1.1" id="Layer_1" xmlns="http://www.w3.org/2000/svg" xmlns:xlink="http://www.w3.org/1999/xlink" x="0px" y="0px"
	 width="329.1px" height="77.1px" viewBox="0 0 329.1 77.1" enable-background="new 0 0 329.1 77.1" xml:space="preserve">
<g id="Layer_1_1_">
</g>
<g>
	<g>
		<g id="XMLID_2_">
			<g>
				<g>
					<g>
						<path fill="#44393B" d="M328.8,8.1c0,0.5,0,1-0.1,1.5c-0.103,0.603-0.2,1.2-0.302,2c-0.801,2.7-1.601,5.4-2.5,8.2
							c-0.801,2.8-1.898,5.7-3.301,8.9C321.2,31.8,319.7,35.3,317.9,39.1c-1.698,3.8-3.698,8.103-5.801,12.9
							c0,0.3-0.199,0.5-0.397,0.7c-0.2,0.197-0.4,0.397-0.7,0.6c-0.3,0.1-0.602,0.3-0.9,0.4c-0.3,0.1-0.6,0.1-1,0.1
							c-0.397,0-0.8-0.1-1.1-0.3s-0.5-0.5-0.5-0.9c0-0.1,0-0.3,0.1-0.5c0.2-2.397,0.603-4.897,1.103-7.5c0.5-2.6,1.1-5.1,1.8-7.7
							c0.7-2.6,1.398-5.1,2.1-7.6s1.4-4.9,2-7.2c0.603-2.3,1.2-4.5,1.801-6.5c0.602-2,1.102-3.897,1.5-5.5
							c0.302-1.1,0.802-2,1.399-2.7c0.601-0.697,1.3-1.197,2-1.6s1.5-0.6,2.3-0.8C324.4,4.9,325.2,4.8,326,4.8
							c0.398,0,0.8,0.1,1.1,0.1C327.5,5,327.7,5.2,328,5.4c0.2,0.303,0.398,0.603,0.6,1C328.8,6.9,328.8,7.4,328.8,8.1z"/>
						<path fill="#44393B" d="M313.9,63.9c0,0.103,0,0.2,0,0.2c0,0.103-0.101,0.3-0.101,0.603c0,0.3-0.1,0.697-0.3,1.1
							c-0.102,0.4-0.3,0.9-0.5,1.4s-0.602,0.897-1,1.397c-0.5,0.4-1,0.8-1.7,1c-0.7,0.3-1.6,0.4-2.6,0.4c-0.9,0-1.7-0.103-2.303-0.3
							c-0.697-0.2-1.299-0.5-1.799-0.9s-0.898-1-1.201-1.6c-0.299-0.7-0.397-1.4-0.397-2.4c0-0.8,0.101-1.5,0.397-2.3
							c0.201-0.7,0.603-1.4,1.103-2c0.5-0.603,1.2-1,2-1.4c0.8-0.3,1.8-0.5,2.898-0.5c1.801,0,3.199,0.4,4.199,1.3
							C313.4,61,313.9,62.3,313.9,63.9z"/>
					</g>
				</g>
			</g>
			<g>
				<path fill="#44393B" d="M313.8,64.1c0,0.103-0.1,0.3-0.1,0.603c0,0.3-0.103,0.697-0.302,1.1c-0.101,0.4-0.301,0.9-0.5,1.4
					c-0.198,0.5-0.601,0.897-1,1.397c-0.5,0.4-1,0.8-1.698,1c-0.7,0.3-1.603,0.4-2.603,0.4c-0.897,0-1.7-0.103-2.3-0.3
					c-0.699-0.2-1.3-0.5-1.8-0.9s-0.899-1-1.2-1.6c-0.3-0.7-0.4-1.4-0.4-2.4c0-0.8,0.103-1.5,0.4-2.3c0.2-0.7,0.6-1.4,1.1-2
					c0.5-0.603,1.201-1,2-1.4c0.803-0.3,1.803-0.5,2.9-0.5c1.8,0,3.2,0.4,4.2,1.3c1,0.9,1.5,2.2,1.5,3.803
					C313.9,64,313.8,64.1,313.8,64.1z"/>
				<path fill="#44393B" d="M307.7,52c0.198-2.4,0.6-4.9,1.1-7.5c0.5-2.603,1.101-5.103,1.8-7.7c0.7-2.6,1.4-5.1,2.103-7.6
					c0.699-2.5,1.397-4.9,2-7.2c0.6-2.3,1.198-4.5,1.8-6.5c0.6-2,1.1-3.9,1.5-5.5c0.3-1.103,0.8-2,1.398-2.7
					c0.602-0.7,1.302-1.2,2-1.6c0.699-0.4,1.5-0.603,2.302-0.803c0.8-0.1,1.6-0.197,2.397-0.197c0.4,0,0.801,0.1,1.103,0.1
					c0.397,0.1,0.6,0.3,0.897,0.5c0.2,0.3,0.4,0.6,0.603,1c0.1,0.4,0.198,1,0.198,1.7c0,0.5,0,1-0.101,1.5c-0.1,0.6-0.2,1.2-0.3,2
					c-0.8,2.7-1.602,5.397-2.5,8.2c-0.8,2.8-1.9,5.697-3.3,8.897C321.3,31.7,319.8,35.2,318,39c-1.7,3.8-3.7,8.1-5.8,12.897
					c0,0.303-0.2,0.5-0.4,0.7S311.4,53,311.1,53.2c-0.3,0.1-0.6,0.3-0.897,0.397c-0.302,0.103-0.603,0.103-1,0.103
					c-0.4,0-0.802-0.103-1.103-0.303c-0.3-0.197-0.5-0.5-0.5-0.897C307.6,52.4,307.6,52.3,307.7,52z"/>
			</g>
		</g>
	</g>
	<g>
		<g>
			<g id="XMLID_1_">
				<g>
					<g>
						<g>
							<path fill="#44393B" d="M129.1,46.8c1.4,1.3,0.9,4.5-0.3,7.1c-0.5,1.103-1.7,3-3,3.303c-1.7,0.397-3,0.1-4.1-0.603
								c-1.102-0.7-1.9-1.6-2.602-2.8c-0.6-1.2-1.1-2.2-1.398-3.7C117.4,48.701,117.1,47,117,46H116.4l-6.3,17.3
								c-0.3,0.9-0.6,1.6-0.898,2.2c-0.302,0.6-0.602,1-0.9,1.397c-0.3,0.4-0.6,0.603-1,0.803c-0.4,0.1-0.7,0.197-1.2,0.197
								c-1,0-1.7-0.197-2.3-0.6c-0.6-0.4-1-1-1.4-1.7c-0.398-0.7-0.5-1.5-0.6-2.397c0-0.2,0-0.4-0.1-0.5
								c-0.2,0.1-0.4,0.3-0.602,0.397c-0.898,0.603-1.898,1.103-3,1.7c-1,0.5-2.1,1-3.1,1.4c-1,0.397-2.102,0.697-3.102,1
								c-1,0.199-1.898,0.399-2.8,0.399c-0.898,0-1.6-0.2-2.3-0.5c-0.6-0.397-1.1-0.8-1.6-1.5C84.8,65,84.4,64.201,84.1,63.4
								c-0.3-0.897-0.6-1.8-0.8-2.897c-0.8,1.1-1.7,2.1-2.7,3C79.7,64.4,78.7,65.201,77.7,65.9c-1,0.7-2,1.2-3,1.603
								c-1,0.397-2,0.6-2.9,0.6c-0.8,0-1.5-0.1-2.2-0.397C68.9,67.4,68.3,67,67.8,66.4C67.3,65.8,66.9,65,66.6,64s-0.5-2.2-0.5-3.7
								c0-3.1,0.7-4.8,0.7-6.5c0-3.2-0.1-3.6-0.3-4.6c0-0.303-0.102-1.4-1.4-3.303c-0.898-1.397-2-2.397-3.2-3.3
								c-1.198-0.8-2.198-1.5-3-2.1l-0.3,0.399c0.7,1.4,1.2,2.803,1.5,4.303s0.5,3.197,0.5,5.1c0,1.4-0.1,2.8-0.5,4.2
								c-0.3,1.397-0.7,2.8-1.3,4.1s-1.3,2.603-2.1,3.7c-0.802,1.1-1.802,2.1-2.802,3c-1.1,0.9-2.198,1.5-3.5,2
								c-1.3,0.5-2.6,0.7-4.1,0.7c-2.1,0-3.8-0.5-5.3-1.4c-1.5-0.897-2.7-2.1-3.602-3.5c-0.898-1.5-1.6-3.1-2.1-4.897
								c-0.4-1.803-0.6-3.7-0.6-5.603c0-3.1,0.398-5.8,1.198-8c0.802-2.2,1.9-4.2,3.302-5.8c1.398-1.6,3.198-2.9,5.3-3.9
								c2.1-1,4.398-1.397,7-1.397c2.2,0,4.3,0.397,6.3,1c1.9,0.7,3.6,1.7,4.9,2.7c0.898,0.697,1.8,1.6,2.8,2.6
								c1.2,1.2,2.2,2.6,2.398,2.4c0.9-0.9,1-2.103,1.7-3.803c0.9-2.1,1.3-2.897,1.8-3.5c0.4-0.6,1-1.1,1.602-1.397
								c0.6-0.4,1.3-0.603,2-0.603c1.2,0.101,2.1,0.301,2.7,0.601c0.5,0.3,0.8,0.8,0.8,1.3c-0.2,1.6-0.5,3.1-0.7,4.6
								c-0.3,1.5-0.5,2.9-0.8,4.4s-0.602,3.1-0.9,4.9c-0.3,1.8-0.6,3.3-0.8,4.397c-0.2,1.103-0.3,2-0.5,2.603c-0.2,0.6-0.2,1-0.2,1
								c0,0.397,0,0.897,0.102,1.3c0.1,0.397,0.198,0.8,0.398,1.1s0.4,0.603,0.602,0.8c0.3,0.2,0.6,0.303,0.898,0.303
								c0.5,0,1.102-0.103,1.602-0.4s1.1-0.7,1.5-1.2c0.5-0.5,0.898-1.1,1.3-1.897c0.398-0.7,0.7-1.603,0.898-2.603l3.9-19.2
								c0.1-0.6,0.6-1,1.4-1.397c0.8-0.4,1.698-0.603,2.698-0.603c1.2,0,2.102,0.2,2.802,0.603c0.698,0.397,1,1,1,1.6
								c0,0.603,0,1.5-0.102,2.603c-0.1,1.1-0.2,2.3-0.398,3.6c-0.2,1.3-0.5,2.8-0.9,4.7c-0.3,1.8-0.6,3.3-0.8,4.5
								s-0.4,2.2-0.602,3.1c-0.198,0.9-0.3,1.5-0.3,2c0,0.7,0,1.301,0,1.801c0,0.602,0.102,1,0.2,1.399c0.099,0.4,0.3,0.7,0.5,1
								c0.2,0.2,0.5,0.3,0.899,0.3c0.5,0,1.101-0.1,1.899-0.397c0.7-0.302,1.5-0.603,2.3-1c0.801-0.4,1.7-0.9,2.602-1.5
								c0,0,1.6-1,2.199-1.9c0.5-0.8,0.699-1.8,0.801-2.8c0.199-1.5,0.398-3.102,0.699-4.602c0.301-1.601,0.601-3.301,1-5.101
								s0.801-3.3,1.101-4.5s0.6-2.2,0.899-3c0.199-0.5,0.399-0.899,0.601-1.2c0.201-0.3,0.399-0.5,0.6-0.699
								c0.2-0.198,0.602-0.301,0.9-0.398c0.399,0,0.8-0.102,1.399-0.102c0.601,0,1.101,0,1.399,0.102c0.3,0.1,0.601,0.2,0.8,0.398
								c0.2,0.199,0.301,0.5,0.301,1c0,0.399,0.101,1,0.101,1.699c0,0.9-0.101,2-0.2,3.603c-0.1,1.6-0.1,3.1-0.1,4.1h0.398
								c0.5-1,1.102-2.1,1.802-3.6c0.698-1.5,1.398-2.802,2.198-3.802c0.802-1,1.7-1.801,2.602-2.5c1-0.698,2.1-1,3.398-1
								c0.4,0,0.9,0.102,1.302,0.199c0.398,0.2,0.8,0.4,1.1,0.7s0.6,0.601,0.8,1c0.2,0.4,0.3,0.9,0.3,1.4c0,0.397-0.1,1-0.198,1.697
								c-0.102,0.7-0.302,1.603-0.602,2.803c-0.3,1.1-0.5,2.1-0.6,2.8c-0.102,0.7-0.2,1.397-0.2,1.8c0,0.8,0.1,1.5,0.3,2.101
								c0.2,0.602,0.4,1,0.602,1.399c0.3,0.3,0.6,0.601,0.898,0.7c0.3,0.1,0.7,0.2,1.102,0.2C128.1,49.8,127.9,46.8,129.1,46.8z
								 M54.2,47.6c0-1.1-0.102-2.1-0.302-3C53.7,43.701,53.5,42.9,53.2,42.201c-0.302-0.7-0.802-1.2-1.302-1.603
								C51.4,40.2,50.8,40,50,40c-1,0-1.9,0.397-2.7,1.2C46.4,42,45.7,43.1,45,44.4c-0.7,1.303-1.2,2.7-1.5,4.2
								c-0.4,1.5-0.602,3.3-0.602,5.2c0,1,0.102,1.9,0.302,2.8c0.198,0.9,0.5,1.603,0.898,2.3c0.4,0.603,0.9,1.2,1.602,1.5
								C46.4,60.8,47.1,61,48.1,61c0.8,0,1.602-0.4,2.3-1.2c0.7-0.8,1.4-1.8,2-3.1c0.602-1.2,1-2.7,1.4-4.5
								C54,50.5,54.2,49,54.2,47.6z"/>
						</g>
					</g>
					<g>
						<g>
							<path fill="#44393B" d="M200.399,55.1L200.399,55.1c0.303-0.397,0.201-0.397,0.103-0.2c0.2-2,0.5-4.1,0.7-6.5
								c0.3-2.397,0.6-4.6,1-6.6c0.398-1.9,0.697-3.6,1-5c0.3-1.1,0.8-2,1.5-2.7c0.697-0.7,1.697-1.1,3-1.1c1.3,0,2.1,0.397,2.6,1.2
								c0.5,0.8,0.7,1.8,0.7,3.1c0,0.4,0,0.8-0.103,1.4c-0.1,0.6-0.1,1.3-0.299,2c-0.101,0.697-0.201,1.5-0.301,2.197
								c-0.1,0.803-0.199,1.7-0.3,2.603c-0.103,1-0.2,1.8-0.3,2.3c-0.102,0.5-0.102,1.1-0.102,1.1h0.699c0.1-1,0.4-0.8,0.7-1.397
								c0.3-0.603,0.601-1.5,1.101-2.603c0.399-1.1,0.799-2,1.299-2.897c0.5-0.8,0.9-1.603,1.303-2.4c0.399-0.799,0.8-1.397,1.1-2
								c0.301-0.6,0.6-1,0.7-1.3c0.8-1.3,1.601-2.1,2.601-2.6s2-0.7,3.199-0.7c1.2,0,2.1,0.5,2.801,1.5c0.699,1,1,2.3,1,4.1
								c0,0.3,0,0.7-0.201,1.3c-0.1,0.603-0.197,1.303-0.397,2.2c-0.2,0.8-0.399,1.9-0.603,3.3c-0.197,1.303-0.397,2.5-0.5,3.603
								c-0.197,1.1-0.299,2.1-0.397,3.1c-0.102,1-0.2,2-0.2,2.9c0,1.5,0.2,2.6,0.5,3.6c0.4,0.9,0.9,1.4,1.7,1.4
								c0.3,0,0.7-0.103,1.2-0.3c0.8-0.303,1.3-0.5,1.5-0.7c1-0.8,1.6-1.2,1.6-1.2c0.1,0,0.7-0.4,2-1.2c-0.199-1.1-0.3-2.1-0.3-3.3
								c0-1.4,0.2-3,0.7-4.9c0.5-1.897,1-3.6,1.5-5c0.5-1.397,1.197-2.8,2-4.1c0.8-1.3,1.8-2.4,2.8-3.4c1.101-1,2.3-1.697,3.601-2.3
								C243.899,33,245.399,32.7,247,32.7c1.397,0,2.7,0.197,3.897,0.6c1.201,0.4,2.303,1,3.103,1.7s1.5,1.6,2,2.6
								s0.7,2.103,0.7,3.2c0,0.8-0.102,1.6-0.303,2.4C256.2,44,255.7,44.9,255.101,45.9c-0.701,1-1.301,1.803-1.898,2.103
								c-0.602,0.397-1.303,0.6-2.102,0.6c-1.201,0-2-0.3-2.301-0.897c-0.6-0.9-0.8-1.7-0.5-2.4c0.1-0.4,0.301-1.3,0.6-2.6
								c0-0.2,0.103-0.603,0-1.303c0-0.6,0-1-0.197-1.397c-0.102-0.4-0.4-0.603-0.803-0.603c-1,0-1.799,0.2-2.5,0.7
								c-0.697,0.5-1.299,1-1.697,1.8c-0.5,0.7-1,1.803-1.4,3.103s-0.8,2.5-1,3.397c-0.199,0.9-0.3,1.803-0.4,2.603
								c0,0.8-0.1,1.5-0.1,2.1c0,0.9,0.1,1.7,0.2,2.603c0.101,0.897,0.5,1.8,0.897,2.5c0.5,0.8,1,1.397,1.803,1.897
								c0.8,0.5,1.697,0.8,2.8,0.8c1.101,0,2.397-0.397,3.7-1c1.3-0.697,2.697-1.6,4.1-2.6s2.7-2.2,3.9-3.5
								c0.697-0.8,1.398-1.5,2-2.2c0-2,0.1-4,0.3-6.3c0.2-3.2,0.5-6.5,1-9.9c0.5-3.397,1-6.8,1.5-10.1c0.5-3.4,1.2-6.6,2.2-9.6
								s2.197-5.7,3.6-8c1.4-2.303,3-4.103,4.9-5.5c1.898-1.4,4-2,6.5-2c1.3,0,2.3,0.197,3.1,0.6c0.801,0.4,1.5,0.9,1.9,1.6
								c0.5,0.7,0.8,1.5,1,2.5c0.197,0.9,0.3,2,0.3,3.2c0,1.8-0.2,3.7-0.7,5.8c-0.5,2.103-1.1,4.303-2,6.603
								c-0.8,2.3-1.699,4.6-2.8,7c-1,2.397-2.103,4.6-3.2,6.897c-1.1,2.2-2.1,4.303-3.199,6.303c-1,2-2,3.697-2.801,5.197l0.7,0.5
								c1-1.3,2-2.697,3.2-4.197c1.197-1.5,2.8-3.2,4.8-5.2s3.7-3.4,4.897-4.2c1.303-0.899,2.5-1.3,3.603-1.3c0.3,0,0.601,0.1,1,0.2
								c0.3,0.1,0.7,0.3,1,0.6s0.601,0.7,0.8,1.2c0.2,0.5,0.301,1.2,0.301,2c0,1.6-0.201,3.2-0.701,4.8
								c-0.397,1.5-1.299,3.4-2.5,5.601c-1.197,2.199-2.1,4.102-2.5,5.699c-0.397,1.603-0.6,3.301-0.6,5c0,1,0.1,1.7,0.4,2.301
								c0.3,0.602,0.6,0.899,1.1,0.899c0.6,0,1.2-0.1,1.801-0.399c0.602-0.198,1.299-0.5,1.899-0.898c0.601-0.4,1.3-0.8,1.897-1.3
								c0.603-0.5,1.201-1,1.701-1.5c1.299-1.2,4.299-3.4,4.199-1.9c0,2-0.1,2.8-0.4,3.8c-0.6,1.9-0.697,2.4-1.6,3.7
								c-0.8,1.101-1.199,1.5-1.9,2.3c-0.697,0.7-1.197,1-2.197,1.603c-0.9,0.5-1.803,1-2.803,1.397c-0.897,0.4-1.897,0.801-2.799,1
								c-0.898,0.301-1.801,0.4-2.701,0.4c-1.299,0-2.5-0.3-3.397-1c-1-0.7-1.8-1.5-2.399-2.5c-0.601-1-1.101-2.102-1.398-3.3
								c-0.303-1.2-0.5-2.302-0.5-3.4c0-0.8,0.1-1.6,0.3-2.5c0.2-0.899,0.5-1.899,0.8-2.8c0.301-0.9,0.6-1.9,1-2.8
								c0.4-0.9,0.7-1.7,1.1-2.4c0.4-0.7,0.603-1.3,0.9-1.7c0.2-0.5,0.4-0.699,0.5-0.8l-0.699-0.1c-0.398,0.3-1.101,0.897-2,2
								c-0.898,1-2,2.397-3.201,3.897C274.2,52.2,273,54,271.7,56c-1.303,2-2.4,4-3.5,6.1c-0.5,1-0.9,1.9-1.303,2.7
								c-0.299,0.8-0.697,1.4-1,1.9c-0.299,0.5-0.697,0.8-1,1.1c-0.397,0.3-0.897,0.4-1.5,0.4c-0.799,0-1.397-0.2-1.799-0.603
								c-0.398-0.397-0.801-1-1-1.7c-0.201-0.697-0.398-1.5-0.5-2.397c-0.1-0.9-0.1-1.8-0.1-2.7c0-0.4,0-0.9,0-1.4
								c-0.603,0.7-1.3,1.4-2,2.103c-0.899,0.8-1.8,1.7-2.8,2.5s-2.102,1.5-3.2,2.1c-1.103,0.603-2.3,1.103-3.5,1.5
								c-1.2,0.4-2.399,0.603-3.7,0.603c-2.199,0-4.1-0.4-5.699-1.2c-1.601-0.8-3-1.9-4.101-3.2c-0.2-0.2-0.399-0.5-0.603-0.7
								c-0.197,0.103-0.299,0.2-0.5,0.3c-3,1.603-4.799,2.603-5.6,2.9c-1.8,0.8-3,1.3-3.4,1.4c-1.197,0.397-2.397,0.6-3.697,0.6
								c-1.303,0-2.4-1-3.303-2.8c-0.897-1.9-1.299-4.603-1.299-8.2c0-1.4,0.102-2.9,0.299-4.6c0.201-1.603,0.4-3.303,0.701-5.303
								H217l-9.2,18.301c-0.5,1-1,1.697-1.6,2c-0.602,0.397-1.303,0.5-2,0.5c-1,0-1.7-0.2-2.303-0.603c-0.6-0.397-1-1-1.397-1.6
								c-0.3-0.7-0.5-1.5-0.603-2.4l-0.1-1c0,0,0,0-0.699,0.603c-1.201,1-2.601,1.697-4.101,2.397s-3,1.4-4.5,1.9s-3,0.7-4.3,0.7
								c-1.2,0-2.303-0.2-3.102-0.5c-0.801-0.303-1.5-0.803-2-1.4s-0.898-1.4-1.101-2.2c-0.2-0.897-0.301-1.897-0.301-2.897
								c0-1.5,0.198-3.2,0.5-5.2c0.698-4.103,1.101-6.4,1.301-6.9c0.3-1,1-3.2,1.897-6.6c0.9-2.8,1.4-4.603,1.603-5.5
								c0.101-0.603,0.397-1.103,1-1.603c0.5-0.397,1-0.8,1.601-1c0.602-0.3,1.199-0.5,1.899-0.6c0.699-0.1,1.3-0.2,1.8-0.2
								c1,0,1.6,0.2,2,0.5c0.301,0.4,0.5,0.9,0.5,1.5c0,0.5-0.101,1.2-0.4,2.2c-0.197,0.9-0.5,2-0.799,3.2
								c-0.301,1.2-0.801,2.8-1.398,4.7c-0.602,1.897-1,3.5-1.2,4.8s-0.5,2.7-0.8,4c-0.303,1.3-0.5,2.5-0.5,3.6
								c0,1.103,0.1,1.9,0.398,2.5c0.199,0.603,0.699,0.9,1.399,0.9c0.8,0,1.8-0.3,2.8-0.9c1-0.6,2.1-1.3,3.1-2.1
								c1.103-0.8,2.103-1.7,3.103-2.603C200.101,55.3,200.3,55.2,200.399,55.1z M280,9.7c0-1.803-0.3-2.7-0.8-2.7
								c-0.602,0-1.5,1-2.7,3s-2.603,4.897-4.2,8.7c-0.4,1.3-0.8,2.6-1.1,4c-0.303,1.397-0.602,2.8-0.803,4.1
								c-0.197,1.4-0.397,2.7-0.6,4.1c-0.199,1.303-0.4,2.603-0.5,3.803c-0.5,2.8-0.9,5.5-1.199,8.197
								c0.602-1.5,1.299-3.1,2.102-4.8c0.8-1.7,1.5-3.397,2.197-5.1c0.701-1.7,1.4-3.3,2.103-4.8c0.601-1.5,1.2-2.803,1.601-3.9
								c1.399-3.6,2.399-6.6,3-9.1C279.7,12.7,280,10.8,280,9.7z"/>
						</g>
					</g>
					<path fill="#44393B" d="M200.399,54.9c0.103-0.1,0.201-0.197,0,0.2c0,0,0,0-0.1,0.103c-0.1,0-0.199,0.1-0.199,0.1
						C200.2,55.2,200.3,55,200.399,54.9z"/>
					<g>
						<g>
							<path fill="#44393B" d="M185,22.9c0,2.303-0.5,4.603-1.399,6.803C182.7,32,181.3,34,179.5,35.9c-1.8,1.9-4.103,3.5-6.8,4.9
								c-2.7,1.4-6,2.4-9.7,2.9c-0.102,1.697-0.102,3.3-0.2,4.697c0,0.603-0.1,1.2-0.1,1.803c0,0.6,0,1.197,0,1.697s0,0.9,0,1.303
								c0,0.397,0,0.6,0,0.8c0,1.6-0.2,3.397-0.602,5.1c-0.3,1.8-0.8,3.5-1.5,5.2c-0.6,1.7-1.398,3.3-2.398,4.8
								c-0.9,1.5-2,2.8-3.302,4c-1.198,1.103-2.6,2-4.1,2.7s-3.2,1-5,1c-1.9,0-3.6-0.5-5.1-1.5s-2.802-2.3-4-4
								c-1.102-1.7-2.4-4.8-2.4-9.1c0-4.7,2.2-6.4,5.1-5.103c1.2,0.5,1.5,2,1.7,3.3c0.3,1.9,0.3,1.5,0.8,3S143,66.2,143.8,67.2
								s1.7,1.5,2.9,1.5c1.198,0,2.198-0.4,3.1-1.303c0.8-0.8,1.5-1.897,2.1-3.197c0.602-1.303,1-2.803,1.302-4.5
								c0.3-1.7,0.6-3.4,0.698-5c0.2-1.7,0.4-3.303,0.4-4.803s0.2-2.8,0.2-3.897v-1.7c-2-0.8-3.602-1.4-4.7-2s-2-1.1-2.6-1.7
								c-0.602-0.5-0.9-1.1-1.102-1.7c-0.2-0.6-0.2-1.3-0.2-2.1c0-0.4,0-0.9,0-1.3c0-0.4,0.102-0.8,0.2-1.103
								c0.102-0.3,0.3-0.6,0.5-0.8s0.5-0.3,0.8-0.3c0.2,0,0.5,0.1,0.602,0.2c0.2,0.1,0.398,0.2,0.8,0.397
								c0.8,0.4,1.5,0.803,2.1,1.103c0.602,0.3,1.2,0.5,1.602,0.7c0.5,0.197,1,0.3,1.398,0.397c0-0.3,0-0.897,0-1.8
								s0.102-2,0.2-3.101c0.102-1.199,0.4-2.399,0.7-3.699c0.3-1.301,0.8-2.5,1.4-3.5c0.6-1.103,1.398-2,2.3-2.7
								c0.898-0.7,2.1-1,3.5-1c0.398,0,0.8,0,1.3,0.1c0.4,0.103,0.9,0.2,1.2,0.5c0.398,0.2,0.7,0.5,0.897,0.9
								c0.303,0.399,0.4,0.899,0.4,1.399c0,0.198,0,0.301,0,0.301c0,0.1,0,0.1,0,0.199l-2.101,9.101l-0.301,2.8
								c2.301-0.397,4.301-0.897,5.9-1.7c1.7-0.8,3-1.697,4.1-2.8c1.103-1.1,1.9-2.2,2.4-3.5s0.801-2.6,0.801-4
								c0-1.3-0.301-2.7-0.801-4c-0.5-1.397-1.4-2.6-2.601-3.8c-1.199-1.101-2.899-2.101-5.001-2.8
								c-2.1-0.7-4.698-1.103-7.898-1.103c-2.4,0-4.5,0.5-6.4,1.4c-1.898,0.899-3.8,1.899-5.3,3.399
								c-1.8,1.801-2.3,2.801-3.899,4.898c-1,1.3-1.699,3.4-1.301,4.2c0.5,1.2,1,2.1,0.5,3.6c-0.3,0.802-0.8,1.4-1.8,1.802
								c-1.2,0.5-2.8,0.898-4.1,0.601c-2-0.4-3.302-1.5-3.802-3.4c-0.5-1.698,0.102-4,0.802-5.6c1.398-3.4,2.3-4.601,4.1-7.101
								s3.9-4.602,6.101-6.399c2.301-1.8,4.699-3.2,7.399-4.101c2.7-1,5.5-1.5,8.5-1.5c4,0,7.4,0.5,10.4,1.601
								c3,1.1,5.5,2.5,7.5,4.2c2,1.8,3.5,3.8,4.5,6.1S185,20.4,185,22.9z"/>
						</g>
					</g>
					<g>
						<g>
							<path fill="#44393B" d="M63.8,12.2c0,0.5-0.1,1-0.3,1.5S63,14.6,62.7,15.1c-0.302,0.4-0.802,0.7-1.2,1
								c-0.5,0.3-1,0.4-1.5,0.4c-1.8,0-3.7-0.103-5.602-0.4c-2-0.2-4-0.5-6.1-0.8s-4.3-0.6-6.6-0.9c-2.302-0.3-4.602-0.5-7-0.6
								c-0.4,3-1,6.1-1.802,9.1c-0.8,3-1.6,6.103-2.398,9.2c-0.8,3.103-1.602,6.3-2.5,9.4c-0.8,3.1-1.602,6.1-2.3,9
								C24.9,53.4,24.3,56,23.6,58.4C23,60.8,22.4,62.9,22,64.7c-0.2,0.8-0.5,1.5-0.9,2.197c-0.398,0.603-0.898,1.2-1.3,1.7
								c-0.5,0.5-1,0.9-1.6,1.103c-0.5,0.3-1,0.397-1.5,0.397c-1.4,0-2.5-0.3-3.4-1C12.4,68.5,12,67.4,12,66c0-0.4,0.1-0.9,0.2-1.5
								c0.5-2.103,1-4.103,1.5-6.2s1.1-4.2,1.6-6.5c0.6-2.3,1.3-4.7,2.1-7.2c0.802-2.5,1.802-5.3,2.9-8.3s2.2-6.4,3.4-10.1
								c1.198-3.7,2.6-7.9,4-12.5c-1.2,0.1-2.5,0.197-3.802,0.3c-1.3,0.1-2.5,0.3-3.698,0.5c-1.2,0.2-2.4,0.5-3.4,0.8
								c-1.1,0.3-2.1,0.7-3,1.2s-1.6,1.1-2.1,1.8S10.9,19.8,10.9,20.7c0,0.1,0,0.3-0.1,0.8s-0.3,1-0.6,1.6
								C9.9,23.7,9.3,24.2,8.6,24.7S6.9,25.4,5.5,25.4c-1.3,0-2.3-0.197-3.102-0.697c-0.698-0.5-1.3-1-1.6-1.5
								C0.4,22.6,0.2,21.8,0.1,20.9c0-2,0.4-3.697,1.2-5.197s2-2.7,3.5-3.803c1.5-1,3.3-1.897,5.3-2.5C12.2,8.7,14.5,8.2,16.9,7.8
								c2.5-0.4,5.2-0.6,8-0.8c3.102,0.1,6,0,9,0C38,7,42.3,7.1,46.7,7.4c4.5,0.303,9.1,0.9,14,1.7c1.1,0.2,1.898,0.603,2.398,1.2
								S63.8,11.5,63.8,12.2z"/>
						</g>
					</g>
				</g>
			</g>
		</g>
		<path fill="#44393B" d="M69.2,41.1"/>
	</g>
	<g>
		<g>
			<g>
				<path fill="#E00734" d="M190.5,8.4c5.5,2.5,10.897,5,16.3,7.5c-0.8,0.7-1.5,1.4-2.3,2.103c-0.899,0.8-1.8,1.5-2.603,2.3
					c-0.197,0.2-0.299,0.2-0.5,0.1c-1.397-0.6-2.697-1.3-4.1-1.897c-1.6-0.7-3.199-1.5-4.8-2.2c-0.5-0.2-1-0.4-1.5-0.7
					c-0.2-0.1-0.3-0.5-0.3-0.7c-0.102-0.897-0.102-1.897-0.102-2.8c0-1-0.101-2.1-0.201-3.1C190.5,8.9,190.5,8.7,190.5,8.4z"/>
				<path fill="#E00734" d="M190.899,18.8c2.803,1.3,5.5,2.5,8.303,3.8c-2.602,2.3-5.102,4.603-7.7,6.9
					c-0.103-0.603-0.103-1.2-0.103-1.7c0-0.8-0.1-1.6-0.1-2.4c-0.1-2-0.199-3.897-0.3-5.897C190.899,19.3,190.899,19.1,190.899,18.8
					z"/>
			</g>
		</g>
	</g>
</g>
</svg>
